<svg width="3881" height="3343" viewBox="0 0 3881 3343" fill="none" xmlns="http://www.w3.org/2000/svg">
<rect width="3881" height="3343" fill="#F5F5F5"/>
<g clip-path="url(#clip0_0_1)">
<path d="M2.78925 650.412C2 434.217 2 218.435 2 2C75.3738 2 148.75 2 223.063 2C227.61 7.97998 225.654 11.6569 220.161 13.7668C247.05 12.5448 274.961 18.2334 302.74 11.5534C308.443 10.182 312.649 8.6591 315.493 2.6376C340.708 2 365.417 2 391.063 2C392.176 2.28254 392.491 2.55742 392.507 2.84872C393.267 16.7176 393.263 16.8688 408.151 16.9783C450.713 17.2913 493.228 19.5813 535.819 19.3805C553.694 19.2962 571.641 21.2654 589.611 21.0796C596.968 21.0035 604.156 19.9371 611.419 18.9859C622.028 17.5965 630.561 13.8079 635.427 2.65383C732.042 2 828.084 2 925.063 2C929.057 6.81866 925.855 9.30495 922.385 11.6842C919.355 13.7621 915.586 14.3347 911.656 17.0134C920.186 19.2508 928.039 21.3407 936.112 20.3994C958.802 17.7539 981.363 18.6133 1003.82 22.3227C1013.94 23.9954 1023.71 20.9049 1033.68 21.0604C1066.31 21.5692 1098.97 19.7194 1131.56 23.021C1144.05 24.2861 1155.49 28.9102 1167.13 32.7531C1183.93 38.3005 1200.76 40.7796 1218.29 37.6656C1223.55 36.73 1228.92 37.0502 1234.25 37.0493C1287.91 37.0403 1341.58 36.2079 1395.21 37.3745C1424.85 38.019 1454.42 35.7936 1484 37.0991C1505.9 38.0652 1527.18 34.1842 1548.33 29.4857C1562.57 26.3222 1576.33 27.5778 1589.52 32.8853C1609.06 40.7507 1629.16 44.0923 1650.12 43.0963C1657.11 42.7646 1664.14 42.6853 1671.11 43.1116C1691.51 44.3583 1710.78 41.6013 1728.77 30.82C1740.44 23.8317 1753.48 23.4194 1766.54 27.3227C1767.82 27.7041 1766.19 27.4052 1767.51 27.5714C1823.36 34.6416 1878.65 47.6912 1935.79 38.1614C1958.43 34.387 1981.18 31.7189 2003.58 26.3243C2027.82 20.4886 2052.62 23.0604 2077.25 23.8146C2100.1 24.5145 2121.98 29.5607 2143.68 36.5943C2159.45 41.7032 2176.19 39.578 2192.39 38.6969C2231.29 36.581 2270.18 34.6111 2309.15 35.0776C2327.51 35.2974 2345.68 32.8536 2363.95 31.7681C2386.25 30.443 2408.5 32.9855 2430.75 34.0062C2454.74 35.1069 2478.67 35.8873 2502.6 33.8316C2525.63 31.8537 2548.53 32.7355 2571.37 35.8863C2575.34 36.4331 2579.3 37.1118 2583.31 36.9869C2626.63 35.6376 2669.86 39.8855 2713.17 39.0424C2723.9 38.8336 2734.39 40.9501 2744.97 42.1699C2755.94 43.4349 2766.98 43.8619 2777.86 42.2034C2791.08 40.1903 2803.71 40.8132 2815.91 46.7389C2827.86 52.5488 2841.03 53.016 2853.86 54.8248C2860.49 55.7586 2866.96 57.1789 2873.38 59.0201C2882.18 61.5437 2888.06 65.7187 2887.82 76.3467C2887.66 83.671 2894.45 89.5597 2903.21 88.6288C2925 86.3115 2946.29 92.1064 2967.98 91.2051C2990.25 90.2797 3008.85 99.1904 3020.77 117.969C3033.31 137.735 3052.66 145.655 3073.21 151.756C3085.63 155.441 3097.84 152.987 3107.71 143.772C3116.28 135.773 3123.24 126.36 3129.01 116.218C3133.25 108.775 3130.74 103.977 3121.93 103.261C3103.02 101.723 3086.6 94.0417 3071.1 83.9162C3065.85 80.4815 3060.36 78.6971 3054.17 78.9847C3040.87 79.6031 3029.24 75.6224 3019.31 66.6782C3016.29 63.9611 3012.82 61.3598 3008.73 61.5131C2989.79 62.2233 2970.97 57.2598 2951.97 60.6625C2945.34 61.8498 2939.08 63.9397 2932.87 66.3746C2921.83 70.7009 2910.52 72.1548 2898.58 71.2695C2889.49 70.5951 2884.55 66.7298 2882.48 58.0539C2879.51 45.5857 2881.17 38.3169 2888.78 32.9089C2903.9 22.1614 2921.5 20.4455 2939.19 19.1373C2943.18 18.8428 2947.18 18.9588 2951.16 18.4151C2964.64 16.5726 2964.64 16.5908 2965.52 2.74499C2994.71 2 3023.42 2 3053.06 2C3074.43 10.2758 3093.3 21.6017 3111.93 33.0926C3151.64 57.5947 3189.56 84.7766 3224.21 116.118C3274.42 161.534 3318.32 212.37 3350.59 272.212C3369.11 306.541 3382.79 342.93 3392.12 381.038C3403.5 427.558 3404.05 474.438 3401.05 521.809C3399.93 539.446 3397.76 556.891 3395.53 575.125C3392.37 579.812 3392.38 584.644 3391.34 589.144C3382.34 628.065 3368.01 664.682 3346.32 698.483C3328.26 726.635 3308.58 753.404 3284.15 776.299C3260.81 798.176 3235.73 817.883 3209.2 835.924C3161.87 868.099 3111.32 894.104 3059 916.775C3007.94 938.896 2955.77 958.086 2902.85 975.398C2870.88 985.857 2838.84 996.107 2806.56 1005.45C2777.17 1013.96 2747.81 1022.66 2718.16 1030.36C2691.13 1037.39 2664.09 1044.5 2637.24 1052.32C2614.53 1058.93 2591.88 1065.73 2569.52 1073.35C2520.01 1090.23 2471.29 1109.09 2424.03 1131.71C2369.55 1157.79 2316.89 1186.96 2267.09 1221.13C2228.62 1247.52 2191.38 1275.48 2157.08 1307.28C2118.67 1342.87 2081.35 1379.39 2049.5 1421.16C2038.79 1435.21 2028.95 1449.87 2018.85 1464.35C2015.39 1469.31 2014.68 1474.44 2015.64 1480.43C2021.23 1515.21 2028.24 1549.75 2033.58 1585.34C2036.87 1612.18 2043.83 1637.66 2046.53 1663.84C2046.81 1666.54 2046.33 1670.59 2050.11 1671.24C2053.06 1671.75 2054.34 1668.42 2055.92 1666.39C2089.79 1622.96 2127.06 1582.55 2166.95 1544.68C2212.37 1501.57 2259.88 1460.91 2310.55 1423.87C2343.15 1400.05 2376.69 1377.8 2411.19 1357.04C2455.14 1330.59 2500.86 1307.43 2547.85 1286.68C2598.55 1264.28 2651.15 1247.52 2703.8 1230.58C2763.33 1211.41 2822.81 1192.07 2882.35 1172.97C2914.06 1162.8 2945.67 1152.3 2977.16 1141.55C3014.94 1128.66 3052.15 1114.05 3089.23 1099.15C3136.32 1080.23 3181.8 1058.14 3225.45 1032.31C3265.97 1008.33 3304.01 980.852 3338.52 948.734C3375.76 914.07 3408.53 875.409 3435.96 832.638C3465.9 785.946 3490.04 736.461 3505.53 682.733C3516.48 644.743 3523 606.099 3526.69 567.058C3528.97 543 3528.53 518.545 3525.67 494.247C3521.99 463.136 3518.16 432.011 3509.85 401.822C3500.84 369.07 3489.5 337.041 3474.59 306.348C3448.59 252.87 3415.82 204.162 3373.49 162.272C3334.36 123.55 3289.57 92.7804 3240.48 67.755C3198.72 46.4696 3154.96 30.8313 3110.44 16.8812C3098.35 13.0921 3085.57 12.115 3073.54 8.04023C3070.14 6.8881 3066.2 6.86062 3063.91 2.75616C3106.71 2 3149.42 2 3193.06 2C3198.27 13.7593 3205.11 23.0935 3217.55 27.2922C3220.77 28.3795 3223.86 29.3149 3227.23 27.9135C3239.66 22.7432 3251.57 27.0468 3263.25 30.5591C3271.46 33.0258 3275.94 39.0108 3273.77 48.2459C3272.52 53.5509 3274.72 56.7979 3279.05 59.9123C3298.19 73.6842 3318.29 86.0649 3337.41 99.8503C3364.05 119.045 3389.91 138.973 3409.52 166.015C3414.21 172.488 3421.1 177.793 3426.85 183.657C3435.5 192.481 3443.83 202.049 3446.91 213.087C3445.53 201.016 3435.21 192.769 3427.83 182.716C3424.61 178.345 3423.01 173.854 3424.92 168.744C3428.05 160.389 3424.34 154.594 3418.29 149.556C3412.34 144.602 3405.18 141.699 3398.5 137.965C3388.14 132.168 3380.89 125.746 3379.26 111.628C3376.83 90.6522 3369.61 71.134 3345.37 63.2215C3330.96 58.521 3317.87 49.8239 3303.31 44.8706C3300.21 43.8175 3296.31 42.6587 3296.04 38.8991C3295.76 35.1446 3299.56 33.6739 3302.31 31.8139C3319.26 20.3603 3338.83 19.5848 3358.05 19.4374C3423.01 18.9394 3487.98 19.8526 3552.93 19.0308C3594.79 18.5012 3636.68 19.0396 3678.49 17.04C3699.07 16.0561 3719.58 13.7426 3740.2 12.9186C3749.38 12.5515 3757.7 9.04505 3765.44 2.58102C3805.29 2 3844.58 2 3884 2C3884 217.375 3884 432.75 3884 649.063C3879.43 650.011 3879.73 646.244 3879.64 643.591C3878.88 619.511 3874.51 595.938 3869.29 572.553C3860.94 535.149 3850.72 498.319 3831.07 462.469C3830.03 472.249 3832.77 479.809 3832.72 487.506C3832.52 520.497 3833.3 553.506 3832.43 586.476C3831.68 615.119 3826.74 643.41 3821.74 671.594C3806.57 757.027 3777.48 837.197 3732.58 911.734C3700.49 964.982 3661.55 1012.55 3615.91 1054.27C3569.15 1097 3515.86 1130.35 3458.06 1156.59C3411.53 1177.72 3363.44 1194.48 3314.49 1208.56C3263.3 1223.29 3211.62 1236.32 3159.77 1248.68C3113.47 1259.72 3066.91 1269.66 3020.88 1281.85C3004.48 1286.19 2987.68 1288.87 2971.23 1293.26C2936.19 1302.61 2900.87 1310.91 2865.72 1319.87C2815.73 1332.61 2765.95 1346.09 2716.42 1360.43C2667.49 1374.6 2619.35 1391.19 2572.08 1410.46C2519.84 1431.75 2469.12 1455.99 2420.59 1484.64C2374.92 1511.61 2331.29 1541.72 2291.09 1576.38C2259.29 1603.79 2229.52 1633.51 2203.23 1666.28C2190.79 1681.78 2177.79 1697.18 2168.56 1715.98C2156.89 1732.71 2146.85 1749.5 2138.81 1767.49C2136.02 1773.73 2133.16 1779.89 2131.45 1786.68C2159.01 1760.82 2188.27 1737.3 2218.18 1714.57C2265.68 1678.46 2315.12 1645.31 2366.97 1615.65C2404.61 1594.12 2442.94 1574.06 2482.32 1556.01C2522.02 1537.82 2562.77 1522.25 2604.28 1508.67C2660.4 1490.31 2717.83 1477.54 2775.97 1467.42C2811.02 1461.33 2845.98 1454.77 2881.09 1448.93C2917.5 1442.88 2953.93 1436.83 2990.3 1430.54C3032.88 1423.16 3075.4 1415.25 3117.81 1406.81C3179.19 1394.58 3240.23 1381.12 3300.45 1363.91C3343.07 1351.73 3385.46 1338.76 3426.44 1322.02C3488.15 1296.81 3548.1 1268.17 3603.01 1229.44C3643.01 1201.24 3679.7 1169.65 3712.98 1134.04C3737.58 1107.72 3758.8 1078.57 3778.36 1048.36C3813.89 993.496 3841.03 934.632 3858.92 871.698C3869.49 834.497 3877.56 796.759 3879.48 757.95C3879.63 754.98 3879.61 751.87 3883.23 749.928C3884 820.708 3884 891.417 3884 963.063C3879.59 968.037 3876.69 972.189 3883.5 977.521C3884 1767.17 3884 2556.35 3884 3346C3235.96 3346 2587.92 3346 1938.94 3346C1934.68 3341.63 1937.2 3337.72 1939.15 3333.93C1962.24 3289.02 1978.98 3241.76 1992.48 3193.19C2002.85 3155.91 2010.74 3118.13 2015.89 3079.88C2018.94 3057.19 2019.97 3034.18 2021.46 3011.26C2023.5 2979.97 2023.76 2948.68 2023.03 2917.41C2022.13 2879.5 2019.17 2841.62 2018.1 2803.77C2016.82 2758.72 2009.02 2714.39 2006.94 2669.5C2006.47 2659.31 2002.51 2649.42 2002.6 2638.99C2002.64 2634.56 1999.47 2628.65 2004.8 2626.46C2009.35 2624.59 2012.05 2630.13 2014.58 2633.42C2028.39 2651.38 2042.78 2668.84 2057.77 2685.84C2100.24 2734 2147.24 2777.16 2199.65 2814.27C2232.85 2837.79 2267.6 2858.82 2305.04 2874.97C2328.27 2885 2352.08 2893.33 2376.59 2899.96C2403.99 2907.38 2431.69 2912.87 2459.79 2915.86C2482.85 2918.31 2505.77 2923 2529.24 2921.35C2541.47 2920.49 2553.79 2921.55 2566.07 2921.6C2607.3 2921.74 2647.56 2915.13 2687.44 2905.98C2711.64 2900.43 2735.36 2892.83 2756.91 2881.31C2739.95 2878.67 2722.46 2876.44 2704.02 2875.92C2694.15 2869.21 2683.09 2868.94 2672.79 2867.29C2655.96 2864.6 2639.64 2859.93 2623.27 2855.66C2562.66 2839.83 2503.71 2819.04 2446.96 2792.44C2420.17 2779.89 2394.17 2765.72 2368.9 2750.14C2336.56 2730.19 2305.31 2708.89 2276.49 2684.07C2257.85 2668.02 2239.89 2651.24 2221.97 2634.41C2196.75 2610.71 2171.36 2587.15 2147.57 2562C2125.4 2538.57 2102.8 2515.53 2081.92 2490.9C2080.41 2489.11 2078.81 2487.43 2076.27 2485.69C2044.64 2451.02 2014.31 2416.14 1984.7 2380.69C1967.66 2360.3 1950.74 2339.74 1935.21 2318.15C1930.87 2312.12 1927.76 2312.03 1923.29 2318.15C1901.72 2347.68 1878.61 2376.02 1854.78 2403.75C1852.59 2406.3 1851.12 2409.3 1848.77 2412.6C1834.96 2423.49 1826.43 2438.15 1815.07 2450.29C1805.3 2460.73 1796.39 2471.97 1786.37 2482.2C1745.61 2523.83 1706.96 2567.53 1664.74 2607.72C1632.45 2638.46 1601.1 2670.34 1566.06 2697.94C1532.32 2724.52 1496.23 2747.83 1458.51 2768.62C1398.43 2801.73 1334.97 2826.56 1269.47 2846.2C1241.79 2854.5 1213.7 2861.51 1185.37 2867.64C1157.68 2873.63 1129.59 2876.67 1101.18 2881.41C1114.64 2888.04 1128.18 2892.67 1142.15 2898.09C1145.46 2899.79 1147.83 2901.92 1151.78 2902.06C1152.88 2902.27 1153.32 2902.38 1154.41 2902.68C1155.95 2903.15 1156.84 2903.42 1158.43 2903.86C1170.36 2906.11 1180.74 2911.98 1193.31 2911.66C1194.62 2911.82 1195.15 2911.9 1196.46 2912.17C1213.31 2916.55 1229.43 2920.38 1247.1 2919.49C1248.54 2919.63 1249.11 2919.72 1250.55 2919.99C1284.49 2923.92 1317.61 2924.82 1350.79 2921.57C1356.44 2921.01 1362.11 2921.49 1368.59 2920.74C1370 2920.35 1370.56 2920.21 1371.96 2919.89C1401.35 2919.92 1428.9 2913.04 1457.4 2907.65C1485.63 2899.63 1513.18 2892.09 1539.74 2881.23C1569.09 2869.24 1596.98 2854.65 1624.03 2838.1C1656.79 2818.04 1687.19 2794.9 1716.31 2770.03C1750.02 2741.23 1780.95 2709.62 1810.25 2676.36C1823.25 2661.59 1834.79 2645.71 1847.17 2630.48C1849.16 2628.02 1851.08 2624.15 1855.02 2625.72C1858.95 2627.28 1857.86 2631.18 1857.16 2635.25C1853.51 2685.13 1852.23 2734.35 1849.12 2783.47C1849.06 2784.46 1848.98 2785.46 1849.01 2786.46C1850.3 2832.77 1844.92 2879.03 1847.22 2925.28C1849.11 2963.16 1849.65 3001.07 1852.23 3038.95C1855.16 3082.05 1862.58 3124.3 1872.55 3166.01C1885.96 3222.11 1904.46 3276.68 1930.71 3329.26C1933.17 3334.67 1935.76 3339.18 1934.47 3345.29C1290.13 3346 646.262 3346 2 3346C2 2559.29 2 1772.58 2 984.937C7.96734 979.577 13.2609 982.271 16.9563 986.772C27.8497 1000.04 39.6935 1012.4 45.9833 1029.27C52.1706 1045.87 64.2193 1059.35 75.8925 1072.61C84.1047 1081.93 91.1572 1091.71 95.7359 1103.47C101.407 1118.03 111.366 1130 123.652 1139.29C137.182 1149.53 146.51 1162.33 152.56 1177.83C154.656 1183.21 157.668 1187.85 161.542 1192.09C171.419 1202.92 181.237 1213.8 191.166 1224.58C198.699 1232.76 207.553 1239.06 217.304 1244.42C228.671 1250.66 240.246 1256.58 250.921 1264.08C258.284 1269.25 266.69 1272.53 274.886 1276.28C302.375 1288.84 330.032 1301.12 354.921 1318.76C366.744 1327.14 379.948 1332.38 395.252 1329.79C402.634 1328.54 410.279 1329.03 417.874 1328.24C409.385 1323.05 400.712 1318.43 392.532 1313.68C381.648 1307.36 369.17 1304.91 358.903 1297.3C351.877 1292.08 342.612 1290.24 335.028 1285.19C309.521 1268.23 282.476 1253.8 258.827 1233.76C238.139 1216.24 216.916 1199.26 196.241 1181.68C182.672 1170.14 168.131 1159.22 156.977 1145.48C147.015 1133.21 136.702 1121.1 127.423 1108.17C118.555 1095.82 108.984 1083.92 100.021 1071.61C92.6859 1061.54 85.1509 1051.59 79.5461 1040.27C75.9522 1033.02 70.3511 1026.89 66.1633 1019.78C59.7533 1008.89 55.6019 996.961 48.8326 986.388C45.502 981.186 43.4413 975.732 43.4627 969.515C43.4758 965.716 42.9485 961.887 38.9774 960.209C26.4162 954.9 16.8 944.138 2.56053 940.472C2 877.292 2 814.583 2 750.937C8.68642 747.972 8.22934 753.364 8.33916 756.814C9.08433 780.218 13.5279 803.062 17.9869 825.944C25.0186 862.028 35.7509 897.009 49.2108 931.141C64.8935 970.909 84.2406 1008.87 107.37 1044.85C140.149 1095.84 178.542 1142.01 224.213 1182.1C272.082 1224.11 324.836 1258.8 381.913 1286.68C428.599 1309.48 476.581 1329.21 526.221 1345.12C583.041 1363.33 640.374 1379.24 698.689 1391.8C728.273 1398.17 757.992 1403.87 787.597 1410.05C824.07 1417.66 860.798 1423.81 897.419 1430.42C927.189 1435.79 957.141 1440.52 987.02 1445.43C1011.9 1449.52 1036.93 1452.91 1061.62 1458.41C1078.14 1462.08 1094.99 1464.49 1111.69 1467.35C1160.32 1475.68 1208.5 1485.95 1255.75 1499.97C1308.15 1515.52 1359.14 1535.01 1409.05 1557.46C1461.41 1581.01 1511.31 1609.06 1560.25 1638.8C1592.11 1658.16 1622.71 1679.53 1652.68 1701.8C1688.71 1728.58 1723.72 1756.54 1757.23 1786.58C1706.43 1671.37 1621.97 1586.04 1517.64 1517.32C1503.72 1505.58 1488.32 1497.45 1473.56 1488.49C1431.66 1463.06 1387.81 1441.4 1342.85 1421.84C1296.37 1401.62 1248.81 1384.38 1200.52 1369.22C1164.96 1358.05 1128.83 1348.78 1092.98 1338.57C1053.94 1327.46 1014.59 1317.47 975.243 1307.67C942.973 1299.64 910.836 1290.89 878.2 1284.17C858.687 1280.14 839.067 1276.17 819.96 1270.18C805.67 1265.7 790.869 1262.96 776.283 1259.77C719.333 1247.3 662.851 1232.97 606.562 1217.92C559.938 1205.46 513.789 1191.18 468.919 1173.3C400.398 1145.99 336.599 1110.66 280.796 1061.66C228.754 1015.97 185.797 963.082 150.553 903.548C123.752 858.277 102.913 810.421 87.3775 760.378C77.7264 729.29 71.0037 697.374 64.7398 665.295C53.0014 605.18 55.8635 544.652 55.4008 484.146C55.3523 477.806 57.767 471.688 56.9776 463.496C47.6911 477.968 42.3685 492.636 37.0654 507.24C25.4379 539.261 18.1851 572.421 11.9273 606.683C10.8654 618.543 9.87963 629.575 8.84894 640.602C8.47502 644.602 9.34821 649.499 2.78925 650.412Z" fill="#FEFEFE"/>
<path d="M3063.17 2C3066.85 7.14763 3072.75 5.78719 3076.77 6.60257C3095.53 10.4104 3113.83 15.7373 3132.11 21.2461C3157.42 28.8713 3182.11 38.2963 3206.35 48.6561C3223.61 56.0335 3240.34 64.8316 3256.95 73.7569C3283.36 87.9442 3308.07 104.616 3332.05 122.462C3338.43 127.208 3344.6 132.272 3350.53 137.577C3360.42 146.438 3370.48 155.183 3379.68 164.736C3402.25 188.177 3422.49 213.495 3440.24 240.864C3454.53 262.889 3467.26 285.739 3478.69 309.303C3486.92 326.292 3493.52 344.018 3499.89 361.812C3507.02 381.723 3512.45 402.112 3516.99 422.718C3519.9 435.901 3522.06 449.247 3524.15 462.614C3526.09 475.063 3526.25 487.634 3528.33 500.053C3529.58 507.524 3528.88 515.337 3528.9 522.997C3528.94 536.996 3529.63 551.051 3528.61 564.977C3527.67 577.79 3527.11 590.706 3524.36 603.395C3522.97 609.835 3522.77 616.518 3521.68 623.095C3514.52 666.59 3501.42 708.163 3483.87 748.558C3470.48 779.355 3454.22 808.497 3435.94 836.516C3421.62 858.473 3405.82 879.372 3388.74 899.359C3370.55 920.651 3351.12 940.649 3330.2 959.2C3314.07 973.51 3297.23 986.957 3279.71 999.586C3264.36 1010.65 3248.58 1021.06 3232.45 1030.87C3217.18 1040.16 3201.28 1048.44 3185.57 1057.01C3150.69 1076.04 3114.4 1092.14 3077.46 1106.6C3050.72 1117.07 3023.82 1127.19 2996.74 1136.86C2973.78 1145.07 2950.65 1152.78 2927.58 1160.66C2904.83 1168.43 2882.03 1176.09 2858.89 1182.74C2842.44 1187.47 2826.37 1193.52 2810.01 1198.62C2778.54 1208.43 2747.17 1218.59 2715.78 1228.65C2652.63 1248.88 2589.28 1268.81 2529.16 1297.35C2495.65 1313.26 2462.66 1330.13 2430.33 1348.34C2400.49 1365.16 2372.04 1384.17 2343.43 1402.86C2323.48 1415.89 2304.69 1430.73 2285.78 1445.27C2268.73 1458.39 2251.96 1471.9 2235.55 1485.8C2219.83 1499.1 2204.72 1513.12 2189.37 1526.85C2170 1544.17 2151.93 1562.82 2133.71 1581.31C2105.02 1610.45 2078.56 1641.56 2053.07 1673.51C2051.83 1675.08 2050.91 1676.88 2047.68 1677.89C2044.98 1669.53 2043.99 1660.8 2042.42 1652.23C2040.05 1639.29 2038.23 1626.27 2035.62 1613.35C2033.94 1605.03 2031.6 1596.52 2032.36 1586.9C2031.85 1582.76 2033.65 1580.29 2035.17 1577.71C2069.37 1519.73 2110.62 1467.33 2157.78 1419.26C2195.96 1380.34 2237.37 1345.35 2281.89 1314.17C2335.25 1276.81 2392.34 1245.95 2452.25 1220.25C2510.14 1195.41 2569.14 1173.53 2628.83 1153.54C2660.4 1142.97 2692.12 1132.82 2723.96 1123.03C2773.29 1107.86 2822.51 1092.34 2871.82 1077.08C2909.98 1065.27 2948.09 1053.1 2985.71 1039.72C3028.66 1024.45 3071.33 1008.32 3112.99 989.579C3160.85 968.048 3206.91 943.512 3249.14 912.274C3288.94 882.825 3322.4 847.24 3347.18 804.217C3367.08 769.693 3381.35 733.033 3388.1 693.347C3392.52 667.32 3395.56 641.351 3395.35 615.016C3395.25 602.385 3392.64 589.868 3393.2 576.442C3393.73 560.154 3397.23 544.971 3398.84 529.555C3401.48 504.364 3401.41 479.148 3400.72 453.965C3400.29 438.5 3398.27 422.942 3395.44 407.709C3390.75 382.465 3384.32 357.609 3375.53 333.385C3362.27 296.828 3344.13 262.735 3322.53 230.615C3310.17 212.243 3296.38 194.809 3281.71 178.021C3263.95 157.691 3245.02 138.63 3225.23 120.403C3207.2 103.793 3188.13 88.3651 3168.23 73.9869C3151.1 61.6151 3133.63 49.7686 3115.91 38.2752C3100.04 27.9858 3083.2 19.3884 3066.72 10.1973C3062.65 7.92856 3058.6 5.83934 3054.59 2.33913C3056.78 2 3059.56 2 3063.17 2Z" fill="#999999"/>
<path d="M1934.67 3346C1935.45 3340.99 1930.73 3337.88 1930.08 3332.75C1927.71 3320.57 1930.09 3309.46 1932.34 3298.36C1936.32 3278.72 1937.54 3258.8 1939.13 3238.88C1940.61 3220.37 1942.95 3201.97 1943.75 3183.35C1944.68 3161.76 1946.53 3140.13 1946.73 3118.56C1947.38 3048.59 1947.37 2978.6 1946.84 2908.63C1946.43 2854.04 1945.92 2799.29 1942.02 2744.96C1938.45 2695.26 1939.37 2645.2 1931.52 2595.78C1930.06 2586.63 1930.52 2577.19 1929.2 2567.93C1927.76 2557.76 1926.38 2557.03 1917.47 2562.65C1907.48 2568.96 1899.45 2577.36 1892.01 2586.42C1881.59 2599.09 1872.82 2612.8 1865.58 2627.51C1863.96 2630.79 1862.46 2634.19 1859.66 2636.7C1857.34 2638.79 1855.57 2638.47 1854.66 2634.39C1855.66 2631.31 1856.13 2629.09 1855.16 2626.25C1850.32 2627.24 1848.62 2631.6 1846.38 2634.76C1835.05 2650.7 1822.6 2665.78 1809.78 2680.45C1794.28 2698.19 1778.3 2715.56 1761.33 2731.95C1737.23 2755.23 1712.07 2777.24 1685.67 2797.94C1661.38 2816.99 1635.93 2834.27 1609.38 2849.75C1586.25 2863.25 1562.05 2874.82 1536.97 2884.67C1513.94 2893.72 1490.42 2900.78 1466.57 2907.02C1464.98 2907.44 1463.28 2907.46 1460.85 2907.89C1442.4 2913.55 1423.91 2914.51 1405.89 2918.02C1395.19 2920.1 1384.44 2921.41 1372.77 2921.49C1372 2921.9 1371.95 2921.93 1371.92 2921.96C1360.08 2923.74 1348.14 2923.29 1336.26 2923.9C1308.06 2925.34 1279.87 2923.59 1250.79 2922.53C1249.89 2922.18 1249.13 2921.73 1248.75 2921.52C1230.99 2922.37 1214.6 2915.73 1196.69 2914.51C1195.91 2914.15 1195.12 2913.76 1194.72 2913.58C1181.86 2912.79 1170.52 2907.35 1157.68 2904.99C1156.39 2904.93 1155.87 2904.9 1154.68 2904.48C1154 2904.1 1153.97 2903.98 1153.91 2904.01C1152.29 2901.93 1148.45 2904.22 1147.9 2900.07C1163.05 2893.7 1178.9 2893.61 1194.29 2891.77C1231.65 2887.31 1268.68 2881.28 1305.62 2874.24C1337.04 2868.25 1368.12 2860.79 1398.74 2852.04C1438.35 2840.71 1477.67 2828.1 1515.42 2811.08C1540.01 2799.99 1564.42 2788.71 1588.13 2775.75C1630.07 2752.82 1666.39 2723.03 1699.22 2688.56C1740.05 2645.69 1771.61 2596.47 1797.63 2543.72C1816.79 2504.89 1831.73 2464.23 1843.46 2422.47C1844.35 2419.29 1845 2415.97 1847.44 2412.56C1851.5 2401.13 1860.35 2394.02 1867.19 2385.67C1886.11 2362.57 1905.04 2339.48 1922.98 2315.61C1924.77 2313.23 1926.82 2311.07 1929.18 2308.3C1936.06 2314.62 1940.74 2322.19 1946.17 2329.07C1960.14 2346.76 1974.22 2364.35 1988.69 2381.63C2004.88 2400.96 2020.88 2420.43 2037.98 2438.98C2051.01 2453.11 2063.23 2467.99 2076.15 2483.13C2088.5 2500.3 2095.55 2519.54 2104.73 2537.59C2122.13 2571.79 2142.07 2604.37 2162.61 2636.69C2173 2653.03 2184.21 2668.7 2195.91 2684.04C2223.07 2719.65 2253.43 2752.36 2289.32 2779.28C2315.27 2798.74 2344.21 2813.3 2374.75 2824.38C2413.97 2838.62 2454.26 2848.48 2495.44 2855.49C2535.51 2862.31 2575.89 2865.51 2616.22 2869.73C2639.2 2872.13 2662.12 2870.67 2685.06 2871.32C2690.39 2871.47 2695.72 2871.34 2701.68 2872.88C2723 2873.52 2743.22 2877.07 2764.95 2880.44C2751.74 2887.04 2739.5 2892.8 2726.69 2897.13C2705.18 2904.39 2683.27 2910.48 2660.96 2914.5C2646.67 2917.07 2632.16 2918.79 2617.73 2920.72C2596.01 2923.63 2574.2 2924.42 2552.47 2924.88C2539.35 2925.15 2525.91 2925.57 2512.73 2923.42C2511.43 2923.21 2510.11 2922.83 2508.8 2922.85C2488.89 2923.2 2469.15 2920.42 2449.64 2917.42C2425.65 2913.74 2401.81 2909.01 2378.13 2903.02C2341.69 2893.81 2307.02 2880.34 2274 2863.12C2244.11 2847.54 2215.46 2829.61 2188.32 2809.3C2161.71 2789.39 2136 2768.46 2112.05 2745.47C2092.17 2726.38 2072.68 2706.89 2054.57 2685.98C2038.27 2667.15 2022.42 2648.02 2007.53 2628.08C2007.19 2627.63 2006.37 2627.55 2005.68 2627.26C2003.41 2627.92 2003.94 2630.04 2004.29 2631.26C2007.21 2641.49 2005.91 2652.22 2008.7 2662.61C2010.8 2670.44 2010.28 2679.08 2010.91 2687.33C2011.77 2698.52 2014.01 2709.52 2014.44 2720.74C2015.04 2736.27 2016.18 2751.76 2018.99 2767.09C2019.58 2770.32 2019.38 2773.73 2019.3 2777.06C2018.83 2796.66 2021.1 2816.18 2022.43 2835.64C2026.47 2894.84 2024.71 2954.04 2024.28 3013.22C2024.13 3034.33 2021.63 3055.49 2019.04 3076.48C2016.58 3096.43 2013.35 3116.34 2009.11 3135.98C2002.4 3167.09 1994.59 3197.92 1984.77 3228.29C1974.29 3260.7 1961.8 3292.2 1947.67 3323.11C1944.39 3330.28 1939.84 3336.86 1937.79 3345.26C1937.11 3346 1936.22 3346 1934.67 3346Z" fill="#999999"/>
<path d="M3884 749.063C3882.36 750.158 3881.73 751.249 3881.87 752.682C3883 764.079 3880.84 775.355 3879.16 786.405C3877.13 799.685 3874.97 813.022 3872.22 826.249C3868.04 846.282 3862.85 865.942 3856.98 885.519C3850.05 908.636 3841.48 931.092 3832.06 953.261C3817.88 986.615 3800.12 1018.09 3780.91 1048.71C3768.4 1068.64 3754 1087.3 3739.67 1105.99C3721.18 1130.1 3699.82 1151.46 3678.03 1172.43C3661.99 1187.87 3644.64 1201.78 3626.85 1215.18C3600.83 1234.76 3573.65 1252.56 3545.26 1268.48C3520.7 1282.25 3495.47 1294.69 3469.74 1306.17C3433.16 1322.48 3395.67 1336.25 3357.64 1348.83C3331.08 1357.62 3304.31 1365.63 3277.32 1372.82C3262.07 1376.88 3246.71 1380.74 3231.37 1384.53C3207.35 1390.46 3183.22 1395.82 3159.03 1400.89C3138.72 1405.16 3118.44 1409.56 3097.88 1412.69C3082.29 1415.05 3067.09 1419.98 3051.49 1422.19C3035.11 1424.51 3018.95 1427.86 3002.64 1430.45C2989.92 1432.47 2977.3 1435.07 2964.6 1437.21C2951.57 1439.41 2938.38 1440.85 2925.46 1443.57C2912.9 1446.22 2900.02 1446.73 2887.58 1450.33C2881.65 1452.05 2875.18 1452.4 2868.96 1453.35C2845.5 1456.94 2822.17 1461.18 2798.85 1465.56C2778.76 1469.34 2758.52 1472.41 2738.52 1476.63C2707.27 1483.23 2676.17 1490.35 2645.33 1498.87C2603.89 1510.32 2563.48 1524.49 2523.76 1540.63C2484.24 1556.68 2445.82 1575.2 2408.16 1595.34C2378.93 1610.97 2350.14 1627.35 2322.17 1645.07C2288.01 1666.72 2254.54 1689.42 2222.6 1714.35C2199.07 1732.71 2175.43 1750.87 2153.28 1770.97C2145.01 1778.47 2136.74 1786.11 2126.84 1794.61C2127.31 1783.12 2133.34 1775.53 2136.83 1767.09C2140.48 1758.24 2145.14 1749.86 2149.42 1741.31C2153.81 1732.55 2159.43 1724.92 2166.22 1717.16C2182.57 1699.59 2200.53 1684.76 2218.48 1669.96C2263.22 1633.04 2309.77 1598.46 2358.78 1567.46C2422.48 1527.18 2488.54 1491.21 2557.93 1461.45C2583.04 1450.68 2608.22 1440.13 2633.8 1430.62C2656.25 1422.29 2679.02 1414.82 2701.9 1407.69C2727.02 1399.86 2752.24 1392.43 2777.68 1385.74C2812.45 1376.59 2847.46 1368.48 2882.58 1360.72C2935.24 1349.09 2988.17 1338.69 3041.1 1328.53C3097.03 1317.8 3152.74 1306.09 3208.19 1293.28C3280.7 1276.54 3351.48 1254.19 3419.83 1224.38C3485.53 1195.74 3547.2 1160.2 3603.57 1116.09C3638.14 1089.04 3671.61 1060.53 3700.74 1027.21C3729.76 994.043 3757.2 959.799 3780.56 922.409C3801.58 888.765 3819.84 853.714 3835.45 817.168C3852.63 776.91 3865.68 735.386 3876.87 693.178C3877.74 689.902 3877.53 685.436 3883.36 685.572C3884 706.708 3884 727.417 3884 749.063Z" fill="#999999"/>
<path d="M2 650.937C5.97151 650.345 6.18337 647.632 6.02494 644.853C5.30504 632.227 9.03475 619.989 9.65425 606.764C16.7849 604.027 16.0646 609.443 16.4513 612.886C19.4258 639.361 23.6715 665.668 28.5792 691.808C48.3798 797.273 84.0191 896.718 144.241 986.264C178.568 1037.31 218.502 1083.75 265.164 1123.98C313.604 1165.75 367.437 1199.3 424.919 1227.35C472.655 1250.64 522.257 1269.02 572.63 1285.31C599.817 1294.1 627.555 1301.31 655.269 1308.51C683.315 1315.8 711.57 1321.95 739.81 1328.31C785.942 1338.7 832.37 1347.39 878.997 1355.26C938.078 1365.24 997.353 1373.91 1056.5 1383.37C1094.56 1389.45 1132.47 1396.75 1170.26 1404.67C1214.31 1413.9 1257.9 1424.82 1301.17 1436.85C1343.17 1448.52 1384.83 1461.59 1425.72 1476.9C1452.22 1486.83 1478.61 1496.97 1504.54 1508.31C1508.83 1510.19 1513.02 1512.16 1517.44 1515.41C1535.96 1524.85 1551.26 1537.51 1567.14 1549.47C1596.14 1571.32 1623.39 1595.1 1648.35 1621.38C1674.17 1648.57 1698.1 1677.32 1718.77 1708.81C1734.81 1733.26 1748.37 1758.84 1759.62 1785.74C1760.38 1787.55 1760.86 1789.49 1761.3 1791.41C1761.4 1791.83 1760.75 1792.42 1760.42 1792.97C1757.82 1792.78 1756.62 1790.6 1754.96 1789.08C1730.16 1766.54 1704.67 1744.88 1678.24 1724.21C1651.81 1703.53 1624.44 1684.22 1597.05 1664.95C1579.43 1652.55 1560.65 1641.77 1542.2 1630.59C1510.49 1611.36 1478.12 1593.22 1444.89 1576.82C1414.08 1561.63 1382.6 1547.8 1350.58 1535.22C1320.45 1523.38 1290.02 1512.42 1258.94 1503.42C1237.48 1497.2 1215.89 1491.45 1194.09 1486.32C1171.94 1481.11 1149.61 1476.71 1127.34 1472.2C1111.86 1469.06 1096.24 1466.09 1080.56 1463.71C1062.98 1461.04 1045.56 1457.3 1028.04 1454.22C1022.5 1453.25 1016.9 1452.7 1011.34 1451.72C988.612 1447.71 965.762 1444.39 943.005 1440.52C920.872 1436.76 898.855 1432.29 876.681 1428.82C863.971 1426.82 851.252 1424.66 838.635 1422.35C823.141 1419.52 807.57 1416.76 792.186 1413.07C782.975 1410.85 773.447 1409.08 764.024 1407.86C749.238 1405.93 734.972 1401.74 720.317 1399.27C703.09 1396.37 686.12 1391.83 669.139 1387.61C642.669 1381.02 616.228 1374.36 589.96 1366.91C567.755 1360.62 545.681 1354.01 523.79 1346.76C494.579 1337.09 465.649 1326.66 437.32 1314.58C391.808 1295.17 347.776 1272.95 305.98 1246.4C285.518 1233.4 265.965 1219.1 246.908 1204.17C213.565 1178.04 183.439 1148.5 156.391 1115.93C129.408 1083.43 105.507 1048.72 84.9873 1011.8C65.3606 976.488 48.8699 939.776 36.0493 901.345C29.8852 882.867 24.4205 864.206 19.5466 845.427C15.7646 830.854 13.4637 815.823 11.2389 800.837C8.80581 784.447 5.92097 768.152 5.72032 751.528C5.70566 750.313 4.60431 750.041 2.86662 749.81C2 717.292 2 684.583 2 650.937Z" fill="#999999"/>
<path d="M3884 685.25C3880.35 684.373 3880.6 687.518 3880.13 689.353C3876.9 701.798 3874.12 714.374 3870.54 726.716C3860.01 763.012 3846.7 798.239 3831.44 832.877C3811.79 877.472 3787.31 919.14 3759.43 958.887C3743.03 982.264 3724.83 1004.25 3705.68 1025.5C3693.86 1038.62 3681.68 1051.35 3668.91 1063.47C3642.65 1088.41 3614.96 1111.73 3585.66 1133.04C3547.42 1160.87 3507.14 1185.42 3464.75 1206.4C3429.86 1223.67 3394.09 1238.87 3357.42 1252.02C3306.68 1270.22 3254.99 1285.16 3202.49 1297.32C3174.49 1303.8 3146.28 1309.34 3118.26 1315.76C3088.63 1322.55 3058.66 1327.55 3028.92 1333.72C3009.56 1337.74 2990.15 1341.57 2970.77 1345.5C2944.53 1350.83 2918.22 1355.88 2892.02 1361.45C2856.87 1368.92 2821.87 1377 2787.08 1386.06C2766.63 1391.39 2746.19 1396.83 2725.96 1402.77C2709.84 1407.51 2693.77 1412.76 2677.77 1418.11C2646.37 1428.61 2615.37 1440.16 2584.78 1452.8C2551.04 1466.74 2517.83 1481.83 2485.37 1498.56C2461.77 1510.72 2438.46 1523.37 2415.42 1536.6C2397.55 1546.86 2379.74 1557.28 2362.45 1568.38C2335.96 1585.39 2309.9 1603.13 2284.57 1621.95C2252.82 1645.55 2221.87 1670.08 2192.19 1696.23C2184.23 1703.24 2176.09 1710.05 2167.32 1716.79C2167.06 1708.84 2172.42 1703.33 2176.54 1697.69C2192.41 1676 2208.42 1654.44 2227.27 1635.05C2235.81 1626.26 2243.67 1616.73 2252.69 1608.38C2274.62 1588.08 2296.47 1567.78 2320.34 1549.58C2353.45 1524.36 2387.75 1501.08 2423.53 1479.96C2444.43 1467.62 2466.04 1456.59 2487.7 1445.61C2510.22 1434.18 2533.26 1423.97 2556.41 1413.99C2575.9 1405.6 2595.71 1397.85 2615.67 1390.63C2660.88 1374.28 2706.74 1359.98 2753.16 1347.43C2773.9 1341.82 2794.5 1335.72 2815.28 1330.25C2847.26 1321.82 2879.31 1313.62 2911.39 1305.54C2941.51 1297.95 2971.62 1290.34 3001.88 1283.32C3027.04 1277.47 3052.01 1270.84 3077.19 1265.14C3110.75 1257.55 3144.27 1249.78 3177.67 1241.56C3206.95 1234.36 3236.29 1227.32 3265.36 1219.37C3299.81 1209.95 3334.47 1200.96 3368.2 1189.34C3408.96 1175.29 3449.15 1159.5 3487.5 1139.38C3506.66 1129.33 3525.6 1118.84 3543.52 1106.86C3561.7 1094.71 3579.39 1081.78 3596.29 1067.68C3614.26 1052.69 3630.88 1036.44 3646.95 1019.6C3674.51 990.724 3699.15 959.563 3720.64 925.758C3739.76 895.685 3756.73 864.607 3771.08 832.055C3784.86 800.782 3795.8 768.537 3804.87 735.562C3809.43 718.998 3813.63 702.329 3816.72 685.535C3820.43 665.397 3824.35 645.243 3826.19 624.721C3827.35 611.904 3829.43 599.081 3829.88 586.227C3831.12 550.925 3831.16 515.59 3829.58 480.297C3829.24 472.711 3827.59 465.174 3828.48 457.384C3832.42 456.603 3832.58 460.158 3833.69 462.099C3847.7 486.453 3856.07 513.003 3863.98 539.765C3870.54 561.977 3874.3 584.79 3878.81 607.427C3880.81 617.454 3880.92 627.859 3881.85 638.097C3882.17 641.717 3881.23 645.435 3883.34 649.486C3884 658.714 3884 667.428 3884 677.071C3883.73 678.333 3883.46 678.667 3883.6 679.5C3884 681.5 3884 683 3884 685.25Z" fill="#DEDEDE"/>
<path d="M957.2 2C958.218 3.58246 958.53 5.58924 956.499 5.82836C954.258 6.09209 951.208 7.30173 950.167 2.7465C952.133 2 954.267 2 957.2 2Z" fill="#FEFEFE"/>
<path d="M2320.51 913.433C2311.39 911.049 2303.27 908.173 2294.78 906.473C2284.62 904.44 2274.96 907.279 2265.12 908.52C2262.57 908.841 2262.54 911.175 2262.46 913.187C2262.26 918.176 2261.89 923.168 2261.94 928.156C2262.08 944.444 2260.04 960.658 2256.99 976.453C2251.42 1005.23 2243.42 1033.33 2232.71 1060.88C2217.71 1099.44 2197.29 1134.87 2175.11 1169.38C2163.13 1188.01 2149.54 1205.66 2135.74 1223.08C2116.77 1247.03 2096.58 1269.91 2075.83 1292.27C2056.82 1312.75 2037.29 1332.75 2016.71 1351.72C1999.36 1367.72 1982.73 1384.5 1965.63 1400.78C1957.7 1408.33 1949.29 1415.38 1941.35 1422.91C1938.52 1425.59 1936.85 1425.63 1934.05 1422.81C1914.37 1402.95 1893.81 1383.93 1874.88 1363.39C1834.72 1319.81 1791.66 1279.12 1750.36 1236.7C1746.88 1233.13 1743.3 1229.61 1740.18 1225.74C1736.29 1220.9 1736.54 1219.79 1741.5 1216.24C1762.83 1200.99 1782.85 1184.1 1802.73 1167.06C1825.99 1147.13 1847.99 1125.87 1868.86 1103.49C1894.71 1075.76 1918.36 1046.21 1937.33 1013.26C1952.7 986.562 1964.31 958.262 1970.28 927.903C1973.56 911.246 1974.99 894.31 1973.12 877.444C1969.82 847.684 1959.99 820.348 1940.49 797.044C1935.4 790.967 1930.61 784.745 1924.13 779.852C1912.67 771.193 1899.52 767.718 1885.79 764.813C1861.45 759.665 1837.02 761.118 1812.54 762.245C1804.37 762.621 1796.06 761.026 1788.1 764.699C1785.7 765.806 1784.41 766.58 1784.02 769.347C1782.58 779.505 1781.65 789.672 1781.49 799.946C1781.19 818.488 1779.42 836.931 1777.15 855.33C1776.66 859.286 1776.24 863.318 1776.45 867.28C1777.18 881.218 1772.54 894.686 1773.76 908.67C1769.93 909.065 1769.51 906.344 1768.39 904.556C1753.76 881.168 1740.8 856.915 1731.86 830.745C1728.34 820.451 1726.26 809.558 1725.8 798.782C1725.47 791.082 1722.43 783.995 1722.6 776.375C1722.67 773.265 1720.65 772.817 1718.03 772.455C1710.82 771.457 1704.01 773.929 1697.59 775.937C1658.64 788.129 1624.21 807.947 1596.84 838.81C1592.7 843.47 1588.92 848.478 1586.06 854.146C1585.14 855.976 1584.53 858.69 1580.87 858.962C1579.24 853.413 1581.42 847.841 1582.3 842.822C1588.84 805.934 1601.18 771.624 1625.95 742.318C1645.46 719.232 1668.96 702.278 1696.29 690.085C1699.61 688.6 1701.65 686.8 1702.55 682.391C1711.49 638.802 1732.63 601.861 1765.88 572.4C1780.75 559.233 1797.74 548.941 1816.19 540.86C1837.57 531.492 1859.77 525.419 1882.68 522.398C1899.36 520.197 1916.24 518.064 1933.2 519.407C1937.62 519.758 1940.31 518.331 1943.42 515.027C1959.19 498.267 1973.6 480.53 1984.9 460.435C1994.31 443.701 2002.38 426.499 2006.98 407.579C2008.56 401.039 2007.79 393.759 2011.85 386.761C2022.11 398.2 2029.2 410.637 2033.88 424.37C2042.46 449.53 2042.13 475.313 2037 500.938C2034.89 511.484 2030.34 521.629 2026.12 531.625C2024.32 535.867 2025.23 538.027 2028.77 539.52C2040.65 544.53 2052.51 549.565 2063.68 556.038C2066.4 557.618 2067.85 556.48 2069.62 554.713C2087.49 536.853 2105.96 519.645 2122.33 500.254C2137.6 482.168 2151.58 463.296 2163.49 442.898C2175.54 422.258 2184.85 400.491 2191.02 377.288C2193.72 367.141 2194.85 356.616 2198.4 345.599C2203.69 350.865 2204.38 357.128 2206.12 362.746C2212.07 382.037 2215.25 401.789 2217.33 421.919C2218.66 434.883 2219.56 447.798 2218.78 460.646C2217.76 477.405 2216.19 494.156 2212.74 510.727C2207.66 535.176 2199.72 558.528 2188.89 580.977C2181.69 595.896 2173.46 610.208 2164.14 623.888C2158.05 632.82 2158.32 632.683 2165.1 640.707C2172.37 649.305 2179.04 658.411 2185.79 667.43C2189.99 673.048 2189.83 673.143 2195.44 669.526C2222.46 652.111 2248.93 633.817 2273.78 613.505C2304.96 588.027 2333.52 559.824 2357.02 526.737C2370.87 507.218 2383.01 486.814 2393.37 465.294C2393.93 464.118 2394.13 462.706 2395.59 462.209C2395.85 462.119 2396.18 462.227 2397.4 462.294C2398.34 471.922 2399.01 481.687 2397.1 491.376C2396.52 494.324 2395.94 497.212 2395.89 500.191C2395.56 519.437 2391.92 538.172 2388.37 557.043C2383.18 584.695 2374.84 611.253 2364.39 637.224C2349.48 674.313 2329.35 708.386 2304.53 739.746C2291.09 756.723 2276.29 772.398 2260.95 787.616C2259.77 788.788 2258.76 790.402 2257.32 791.008C2246.35 795.662 2247.62 804.321 2249.9 813.269C2251.69 820.295 2253.69 827.265 2255.83 835.093C2262.54 832.681 2269.11 830.036 2275.86 827.954C2288.23 824.137 2300.52 823.575 2312.75 829.095C2320.4 832.546 2325.5 838.774 2330.61 844.754C2354.09 872.215 2382.64 892.791 2415.06 908.282C2422.79 911.976 2430.61 915.493 2440.66 920.148C2398.79 927.34 2359.94 922.891 2320.51 913.433Z" fill="#999999"/>
<path d="M500.534 918.4C499.082 916.797 498.055 915.672 496.604 914.165C494.218 912.348 492.624 910.523 490.512 908.371C489.64 907.49 489.174 907.053 488.367 906.279C486.294 904.276 484.61 902.561 482.493 900.428C482.079 899.992 482.033 899.991 482.031 899.968C481.552 899.541 481.112 899.101 480.389 898.283C480.07 897.941 479.483 897.195 479.174 896.834C479.274 895.789 479.187 895.202 478.031 894.938C477.539 895.148 476.887 894.429 476.556 894.074C475.827 893.482 475.428 893.245 474.681 892.405C474.334 891.802 474.266 891.735 474.238 891.698C473.811 891.438 473.412 891.215 472.684 890.392C472.355 889.791 472.284 889.718 472.246 889.682C471.803 889.422 471.398 889.197 470.648 888.368C470.304 887.765 469.766 887.147 469.543 886.803C467.315 882.034 461.863 880.202 460.162 874.846C459.554 874.601 458.969 874.005 458.694 873.691C457.965 873.262 457.51 873.146 456.862 872.353C456.67 871.676 456.5 871.506 456.416 871.421C455.882 871.211 455.433 871.087 454.769 870.297C454.554 869.631 454.052 868.968 453.877 868.591C452.939 867.077 452.087 866 451.15 864.169C450.874 863.543 450.652 863.228 450.537 863.074C449.964 862.954 449.507 862.989 449.089 862.337C449.129 861.65 448.744 861.219 448.564 860.993C447.912 860.826 447.441 860.884 447.038 860.234C447.106 859.525 446.48 858.808 446.22 858.409C444.384 856.65 443.725 854.704 442.216 852.669C441.532 852.035 441.37 851.7 440.916 850.89C440.783 849.273 441.326 848.361 443.038 847.435C459.277 849.925 471.791 859.373 485.529 865.909C504.969 875.158 525.089 882.422 544.802 888.95C521.082 855.573 500.688 819.35 482.168 782.042C462.133 741.68 446.089 699.779 433.586 656.471C417.467 600.638 410.416 543.681 413.567 485.748C416.194 437.437 425.838 390.211 438.431 343.469C447.969 308.065 458.805 273.124 471.346 238.722C480.236 214.334 489.899 190.219 499.557 166.114C500.315 164.223 501.509 162.643 503.372 160.544C503.893 159.938 504.014 159.957 503.966 159.919C504.455 159.558 504.926 159.156 505.422 158.218C506.22 156.804 506.926 155.847 508.03 154.441C508.627 153.66 508.828 153.326 509.512 152.666C509.996 152.339 510.078 152.037 510.229 151.997C513.56 150.202 516.276 147.833 519.532 145.056C520.078 144.656 520.26 144.252 520.462 144.159C520.77 143.725 520.877 143.383 521.5 142.893C522.235 142.44 522.453 142.135 523.119 141.492C524.255 141.487 524.82 141.344 525.321 140.252C525.378 139.781 525.522 139.513 525.67 139.477C526.917 138.821 527.942 138.083 529.552 137.092C530.627 136.114 531.165 135.468 532.231 134.469C533.27 133.44 533.936 133.011 535.162 132.391C535.543 131.906 535.622 131.623 535.76 131.571C537.684 130.425 539.065 128.761 541.603 127.681C543.143 126.5 544.09 125.531 545.573 124.148C546.974 123.073 548.081 123.08 549.159 122.157C549.283 121.648 549.465 121.379 549.623 121.345C553.133 119.856 555.727 117.236 559.406 115.043C560.232 114.422 560.498 114.18 561.21 113.636C562.083 113.236 562.51 113.138 563.123 112.411C563.31 111.781 563.452 111.473 563.607 111.405C567.853 108.138 572.617 106.017 577.368 102.679C577.839 102.236 577.96 101.94 578.117 101.909C579.492 100.522 581.061 99.7082 583.353 98.8486C583.996 98.6783 584.19 98.2686 584.396 98.175C585.12 97.4084 585.794 97.0192 587.237 96.7923C588.136 96.4059 588.446 96.1855 589.253 95.6831C594.353 93.1423 598.396 89.9693 603.375 86.9908C604.231 86.3563 604.519 86.1246 605.316 85.6747C606.864 85.1498 607.952 85.0681 609.131 84.2236C609.277 83.7044 609.425 83.395 609.582 83.3242C616.128 80.0359 622.514 76.8102 629.517 73.3177C630.366 72.7299 630.611 72.4326 631.39 71.9191C632.258 71.4908 632.59 71.2786 633.469 70.8409C634.307 70.3805 634.598 70.1458 635.404 69.6892C646.294 65.0517 656.579 60.4337 667.511 55.5351C668.475 54.9682 668.775 54.6401 669.703 54.0879C672.946 52.4569 676.043 52.4391 679.223 50.7335C680.125 50.2818 680.445 50.0813 681.271 49.6263C685.608 48.4486 688.836 45.7936 693.487 45.2414C694.368 44.6614 694.648 44.3486 695.534 43.8607C696.888 43.2711 697.688 43.0301 699.177 42.936C700.191 42.6785 700.573 42.4742 701.528 41.9648C705.872 40.7907 709.484 39.4771 713.569 37.5704C714.485 37.0349 714.788 36.704 715.721 36.1329C716.962 35.3011 717.699 35.0389 719.089 35.3409C720.614 35.1548 721.593 34.6898 723.331 33.9116C733.696 31.3371 742.931 27.8583 753.099 24.9631C754.198 24.6736 754.556 24.4346 755.501 23.9244C769.101 21.9203 781.234 16.3176 795.073 14.686C795.815 14.4226 796.037 14.0625 796.238 13.9964C804.87 13.2812 812.924 10.5497 821.278 9.42549C824.254 9.02511 826.51 8.96093 826.552 13.4455C799.731 28.663 773.435 43.3949 748.063 59.6666C718.464 78.6499 690.357 99.7588 663.093 121.925C651.549 131.311 640.485 141.343 629.627 151.594C622.166 158.637 614.192 165.18 607.222 172.741C582.737 199.301 558.487 226.061 539.252 256.875C536.627 261.08 533.629 265.053 530.519 269.761C529.521 270.396 529.033 270.732 528.888 271.849C528.663 273.017 528.319 273.733 527.766 275.01C526.418 277.724 525.145 279.773 523.103 281.868C522.357 283.61 521.664 284.752 520.739 286.521C521.262 289.014 519.643 289.92 518.489 291.612C518.097 292.051 517.688 292.725 517.553 293.095C516.493 295.769 515.114 297.741 513.206 299.905C512.923 301.242 512.604 301.977 512.059 303.271C511.56 304.204 511.288 304.578 510.712 305.574C510.408 306.197 510.129 307.075 510.051 307.529C507.617 310.652 507.924 314.664 505.284 317.854C504.971 319.281 504.696 320.065 504.159 321.415C503.693 322.377 503.49 322.773 502.943 323.741C502.6 324.314 502.273 325.163 502.139 325.598C499.95 328.627 499.397 331.772 498.273 335.364C497.47 337.044 497.158 338.247 496.58 340.013C495.555 340.472 495.041 340.778 495.078 341.868C495.065 343.061 494.746 343.881 494.315 345.355C494.041 347.166 493.704 348.262 492.858 349.794C492.47 351.138 492.312 351.951 492.07 353.381C489.562 357.2 489.798 361.183 488.362 365.364C487.567 367.212 487.217 368.502 486.783 370.464C487.247 372.918 485.734 373.921 484.916 375.809C484.561 377.761 484.426 379.174 484.266 381.297C482.711 388.209 481.233 394.423 479.753 401.341C479.533 404.609 479.412 407.196 479.25 410.558C479.159 412.954 477.84 413.967 477.148 415.895C476.891 421.712 476.773 426.981 476.586 433.135C475.45 450.076 476.077 466.143 476.327 483.087C477.256 493.456 475.898 503.01 477.8 513.167C478.579 514.42 478.922 514.973 479.314 516.001C479.374 520.425 479.402 524.362 479.513 529.142C480.311 539.607 482.751 548.954 484.279 559.221C484.434 560.795 484.463 561.613 484.599 563.037C486.201 566.018 485.685 568.914 486.911 572.054C487.093 573.43 487.08 574.161 487.157 575.434C487.715 577.182 488.201 578.381 488.796 580.178C488.971 581.529 489.153 582.233 489.483 583.462C489.565 587.724 491.075 591.11 492.103 595.306C492.219 596.82 492.245 597.651 492.408 599.091C493.007 600.774 493.716 601.728 494.24 603.413C494.467 604.782 494.54 605.586 494.753 606.98C497.455 613.829 499.079 620.439 502.149 627.275C502.35 628.799 502.396 629.614 502.603 631.021C503.21 633.105 504.201 634.291 504.993 636.159C504.987 636.733 505.109 637.698 505.282 638.152C505.972 638.746 506.489 638.886 506.963 639.828C507.127 641.393 507.333 642.158 507.741 643.48C511.162 648.001 510.879 653.733 514.893 658.058C515.204 659.472 515.313 660.226 515.684 661.486C517.975 666.576 520.511 670.904 522.81 676.094C523.729 678.185 524.5 679.61 525.607 681.542C526.499 682.415 526.946 682.884 527.429 683.923C527.856 685.166 528.141 685.941 528.816 687.197C529.207 687.677 528.769 688.557 528.769 688.557C528.769 688.557 529.352 689.349 529.843 689.384C530.401 689.781 530.468 690.143 530.76 691.01C531.586 693.972 534.099 695.094 535.311 697.86C535.587 698.402 535.823 699.177 536.066 699.501C536.54 700.223 536.77 700.622 537.504 701.494C538.815 703.455 539.624 704.943 540.8 706.948C541.465 710.069 544.166 711.061 545.379 713.784C545.703 714.3 546.021 715.082 546.298 715.401C546.719 716.147 546.864 716.573 547.604 717.317C548.201 717.634 548.193 717.78 548.262 717.801C549.115 718.955 549.968 720.038 550.991 721.831C551.288 722.453 551.346 722.681 551.412 722.779C551.99 722.931 552.504 722.985 553.083 723.811C553.15 724.582 553.624 725.287 553.942 725.568C554.506 726.237 554.751 726.624 555.531 727.444C556.065 727.877 556.001 727.966 556.056 727.964C558.481 729.874 558.195 733.543 561.422 735.601C561.931 735.977 561.96 736.008 561.975 736.023C562.322 736.364 562.655 736.689 563.446 737.54C563.905 738.066 563.981 738.057 563.968 738.093C565.638 739.361 566.258 741.315 567.81 743.238C568.455 743.818 568.553 744.168 568.932 744.985C569.126 748.12 572.139 747.632 573.425 749.742C573.767 750.233 574.195 751.025 574.508 751.348C574.549 752.373 574.731 752.925 575.832 753.238C576.295 753.149 576.455 753.446 576.602 753.53C576.829 755.08 578.122 754.971 579.322 755.823C579.618 756.277 579.731 756.284 579.731 756.341C580.161 756.613 580.591 756.828 581.321 757.698C581.623 758.353 582.105 759.108 582.455 759.39C582.549 760.377 582.737 760.933 583.844 761.338C584.318 761.337 584.325 761.575 584.408 761.66C588.07 766.676 592.547 770.732 597.703 775.067C598.87 775.92 599.436 776.419 600.428 777.291C600.549 778.367 600.722 778.92 601.83 779.21C602.289 779.095 602.504 779.466 602.681 779.587C602.468 780.418 602.636 780.953 603.826 781.21C604.29 781.108 604.469 781.425 604.624 781.519C604.829 783.092 606.131 782.969 607.318 783.822C607.612 784.275 607.712 784.302 607.722 784.353C608.161 784.617 608.591 784.83 609.327 785.693C609.634 786.344 610.033 787.076 610.293 787.401C610.711 788.149 610.868 788.571 611.625 789.303C612.225 789.614 612.201 789.761 612.274 789.779C613.093 791.116 614.169 792.172 615.471 793.766C616.369 795.164 616.943 796.102 617.939 797.397C632.542 819.11 647.488 839.87 663.35 860.055C679.101 880.099 697.014 898.026 716.113 914.469C756.115 948.909 800.088 977.74 847.079 1001.95C884.144 1021.05 922.395 1037.27 961.535 1051.59C1012.79 1070.34 1064.78 1086.91 1116.69 1103.67C1167.37 1120.04 1218.02 1136.5 1268.22 1154.24C1325.96 1174.65 1383.28 1196.23 1439.74 1220.06C1489.45 1241.04 1534.83 1269.2 1578.23 1300.95C1616.72 1329.1 1652.76 1360.01 1687.64 1392.56C1740.62 1441.99 1789.66 1494.89 1834.41 1551.74C1877.32 1606.24 1915.57 1663.9 1949.16 1724.66C1979.08 1778.81 2003.03 1835.43 2020.29 1894.78C2024.81 1910.32 2029.71 1926.01 2030.39 1943.22C2030.05 1956.57 2029.38 1969.22 2027.14 1981.64C2021.73 2011.73 2015.39 2041.57 2006.23 2070.85C1990.82 2120.09 1968.98 2166.26 1941.25 2209.57C1928.06 2230.17 1913.24 2249.7 1897.43 2268.54C1878.76 2290.78 1858.39 2311.21 1837.15 2330.83C1818.89 2347.71 1799.34 2363.1 1779.16 2377.67C1761.92 2390.12 1744.07 2401.69 1725.8 2412.46C1706.41 2423.88 1686.62 2434.69 1666.37 2444.66C1634.66 2460.27 1602.42 2474.63 1569.2 2486.59C1540.36 2496.97 1511.17 2506.37 1481.31 2513.68C1460.2 2518.85 1439.06 2523.91 1417.7 2527.68C1403.13 2530.25 1388.33 2532.07 1373.67 2534.24C1360.25 2536.23 1346.42 2534.1 1333.34 2538.68C1332.45 2538.99 1331.36 2538.76 1330.36 2538.79C1309.1 2539.27 1287.82 2540.46 1266.58 2540.01C1252.31 2539.7 1237.86 2540.24 1223.79 2538.47C1196.03 2535 1168.14 2532.57 1140.6 2526.91C1111.84 2521.01 1083.64 2513.32 1055.57 2504.96C1048.01 2502.72 1040.82 2499.27 1032.77 2496.11C1031.17 2495.08 1030.03 2494.98 1028.36 2494.66C1027.82 2494.5 1027 2494.07 1026.55 2493.96C1024.83 2492.87 1022.4 2493.19 1022.1 2491.4C1021.78 2489.46 1023.65 2488.68 1025.33 2488.35C1029.04 2487.63 1032.7 2488.47 1036.21 2489.33C1066.45 2496.73 1097.48 2498.38 1128.25 2500.95C1176.38 2504.96 1224.53 2504.25 1272.83 2499.93C1331.74 2494.66 1389.8 2485.47 1446.89 2470.33C1504.32 2455.11 1560.5 2436.37 1612.05 2405.94C1656.52 2379.68 1696.6 2348.16 1730.67 2309.02C1775.46 2257.55 1808.1 2199.46 1829.72 2134.83C1842.97 2095.24 1853.08 2055.04 1858.11 2013.57C1859.19 2004.71 1862.38 1996.16 1863.02 1986.39C1865.33 1969.21 1867.05 1952.69 1869.26 1936.33C1872.36 1913.36 1871.99 1890.4 1870.57 1867.69C1869.14 1844.79 1865.33 1821.93 1859.65 1799.39C1849.01 1757.22 1832.06 1717.97 1807.91 1681.98C1784.09 1646.48 1758.92 1611.95 1732.32 1578.41C1707.72 1547.39 1681.68 1517.75 1653.43 1490.05C1634.01 1471 1613.27 1453.47 1592.1 1436.37C1557.69 1408.58 1520.58 1384.87 1482.27 1363.16C1454.12 1347.22 1424.95 1333.09 1395.45 1319.61C1353.34 1300.38 1310.26 1283.59 1266.83 1267.8C1240.26 1258.14 1213.57 1248.59 1186.31 1240.76C1165.11 1234.66 1144.34 1227.08 1123.3 1220.41C1103.18 1214.02 1082.87 1208.21 1062.8 1201.68C1033.65 1192.18 1004.59 1182.4 975.568 1172.5C928.679 1156.51 882.144 1139.59 836.217 1120.96C811.414 1110.9 786.673 1100.62 762.486 1089.29C734.986 1076.41 707.785 1062.79 681.094 1048.15C661.934 1037.64 642.86 1026.9 624.533 1015.17C602.543 1001.11 580.943 986.284 560.213 970.244C544.715 958.252 530.023 945.393 514.724 932.172C512.933 930.942 511.926 929.83 510.458 928.398C510.075 927.989 510.033 927.965 510.025 927.943C506.957 924.947 503.976 921.895 500.534 918.4Z" fill="#999999"/>
<path d="M3392.65 575.86C3394.6 576.912 3395.59 578.331 3395.61 580.047C3395.81 599.618 3399.75 619.044 3397.98 638.685C3394.85 673.305 3390.84 707.856 3379.28 740.837C3366.05 778.622 3347.56 813.606 3322.49 845.191C3295.54 879.157 3263.48 907.306 3227.54 931.017C3191.74 954.638 3153.87 974.619 3114.58 991.96C3081.81 1006.42 3048.62 1019.79 3014.96 1031.97C2982.6 1043.69 2949.91 1054.41 2917.11 1064.86C2892.85 1072.59 2868.65 1080.54 2844.34 1088.12C2808.98 1099.16 2773.64 1110.28 2738.14 1120.88C2712.13 1128.65 2686.45 1137.5 2660.65 1145.97C2623.21 1158.27 2585.81 1170.69 2548.93 1184.6C2512.67 1198.28 2476.57 1212.36 2441.14 1228.09C2413.55 1240.35 2386.58 1253.85 2360.2 1268.59C2347.43 1275.73 2334.72 1282.95 2322.39 1290.77C2298.55 1305.89 2275.37 1321.99 2252.72 1338.88C2209.62 1371.01 2171.47 1408.54 2134.6 1447.38C2120.23 1462.51 2107.33 1479.09 2094.28 1495.42C2071.65 1523.78 2052.15 1554.3 2033.01 1585.73C2027.91 1580.05 2029.6 1572.69 2028.13 1566.04C2025.16 1552.59 2023.3 1538.89 2020.89 1525.31C2018.01 1509.05 2015.07 1492.79 2012.08 1476.54C2011.14 1471.43 2013.63 1467.5 2016.27 1463.66C2028.65 1445.59 2041.2 1427.66 2054.68 1410.36C2079.33 1378.77 2107.66 1350.66 2136.17 1322.68C2163.02 1296.34 2192.04 1272.46 2222.06 1249.97C2242.23 1234.85 2262.86 1220.25 2284.18 1206.62C2300.43 1196.23 2316.72 1185.89 2333.43 1176.34C2365.39 1158.1 2397.97 1141.01 2431.44 1125.55C2454.96 1114.69 2478.7 1104.44 2502.74 1094.9C2528.31 1084.76 2554.28 1075.67 2580.43 1067.05C2601.82 1060 2623.36 1053.46 2644.95 1047.17C2661.43 1042.36 2678.28 1038.57 2694.84 1033.92C2723.22 1025.93 2751.96 1019.31 2780.02 1010.17C2796.66 1004.76 2813.66 1000.47 2830.44 995.472C2846.62 990.654 2862.8 985.781 2878.86 980.58C2901.55 973.237 2924.3 966.048 2946.71 957.926C2977.86 946.634 3008.93 935.135 3039.49 922.221C3067.59 910.343 3095.34 897.726 3122.61 884.137C3141.29 874.832 3159.41 864.348 3177.25 853.398C3188.28 846.626 3198.92 839.329 3209.73 832.265C3230.92 818.429 3250.34 802.469 3269.4 785.843C3293.12 765.155 3313.54 741.848 3331.46 716.095C3347.83 692.582 3362.25 668.184 3372.4 641.21C3379.05 623.554 3385.04 605.811 3389.47 587.48C3390.4 583.669 3389.01 579.357 3392.65 575.86Z" fill="#DEDEDE"/>
<path d="M2031.16 1943.4C2025.18 1938.88 2026.56 1931.5 2025.17 1925.42C2016.45 1887.52 2004.11 1850.94 1989.35 1815C1973.06 1775.33 1953.71 1737.28 1932.25 1700.21C1916.1 1672.31 1899.14 1644.87 1880.59 1618.56C1853.42 1580.04 1825.03 1542.4 1793.86 1506.92C1779.6 1490.69 1765 1474.8 1750.6 1458.72C1736.16 1442.6 1721 1427.22 1705.36 1412.36C1677.68 1386.03 1649.45 1360.29 1619.8 1336.12C1598.93 1319.11 1577.5 1302.84 1555.36 1287.65C1513.1 1258.67 1468.72 1233.53 1420.67 1214.99C1395.34 1205.22 1370.3 1194.61 1344.85 1185.12C1297.95 1167.65 1250.9 1150.59 1203.41 1134.78C1166.72 1122.56 1129.98 1110.48 1093.18 1098.62C1058.22 1087.36 1023.31 1075.99 988.593 1064C951.254 1051.11 914.232 1037.38 878.489 1020.59C842.133 1003.52 807.089 984.007 773.69 961.498C753.531 947.912 733.786 933.759 715.775 917.598C696.992 900.745 678.663 883.229 662.719 863.469C649.164 846.669 635.756 829.776 624.388 811.37C621.944 807.413 619.264 803.594 618.053 798.446C621.418 796.222 623.326 798.324 625.378 799.973C665.378 832.129 708.659 859.057 754.73 881.624C781.858 894.912 809.336 907.308 837.373 918.614C857.692 926.807 878.141 934.655 898.666 942.24C921.964 950.85 945.749 958.15 969.363 965.895C1010.93 979.529 1053.18 990.838 1095.24 1002.82C1125.47 1011.43 1155.45 1020.98 1185.44 1030.5C1225.57 1043.25 1265.09 1057.67 1304.36 1072.73C1343.41 1087.72 1382.13 1103.68 1420.11 1121.28C1444.48 1132.57 1468.8 1144.06 1492.54 1156.6C1521.58 1171.94 1550.42 1187.66 1578.79 1204.29C1604.04 1219.1 1628.73 1234.72 1652.88 1251.18C1675.11 1266.34 1697.4 1281.51 1718.62 1298.02C1736.91 1312.26 1754.84 1327.05 1772.24 1342.49C1787.13 1355.71 1801.69 1369.31 1816.64 1382.48C1827.32 1391.88 1836.38 1403.14 1846.08 1413.64C1858.69 1427.29 1870.92 1441.33 1882.75 1455.71C1902.86 1480.16 1920.7 1506.13 1937.49 1532.91C1950.59 1553.78 1962.25 1575.45 1972.23 1597.9C1978.13 1611.18 1984.62 1624.31 1988.48 1638.51C1990.73 1646.77 1994.15 1654.71 1996.98 1662.81C2006.07 1688.82 2012.74 1715.46 2018.89 1742.24C2021.32 1752.82 2022.56 1763.77 2024.71 1774.4C2026.61 1783.84 2027.49 1793.31 2028.7 1802.77C2030.09 1813.58 2030.93 1824.46 2032.06 1835.3C2033.92 1853.19 2034.09 1871.18 2033.97 1889.11C2033.9 1900.67 2034.62 1912.34 2032.62 1923.93C2031.56 1930.1 2032 1936.53 2031.16 1943.4Z" fill="#DEDEDE"/>
<path d="M1518.1 1515.22C1511.28 1515.5 1505.52 1511.87 1499.64 1509.28C1462.59 1492.94 1424.67 1478.91 1386.29 1466.18C1348.93 1453.78 1311.31 1442.23 1273.15 1432.35C1245.31 1425.14 1217.48 1417.82 1189.42 1411.66C1169.47 1407.27 1149.34 1403.36 1129.31 1399.31C1107.91 1394.98 1086.29 1392.12 1064.93 1387.64C1051.72 1384.87 1038.2 1383.25 1024.71 1381.69C1011.29 1380.14 998.03 1377.24 984.692 1374.96C977.18 1373.68 969.567 1372.91 962.035 1372C943.602 1369.78 925.391 1366.15 907.067 1363.39C887.502 1360.44 867.799 1357.59 848.469 1353.4C824.242 1348.14 799.8 1344.03 775.542 1338.97C757.392 1335.18 739.205 1331.32 721.085 1327.43C700.442 1322.99 679.802 1318.27 659.356 1312.76C629.693 1304.76 600.081 1296.64 570.732 1287.55C545.093 1279.61 519.813 1270.61 494.796 1260.96C466.333 1249.98 438.509 1237.45 411.181 1223.83C379.89 1208.25 349.915 1190.39 321.064 1170.74C287.773 1148.06 257.016 1122.15 228.632 1093.6C206.374 1071.21 185.96 1047.17 166.73 1022.04C143.022 991.062 121.838 958.587 103.999 923.938C86.3684 889.696 70.9207 854.537 58.6611 817.944C51.7401 797.286 45.6924 776.411 39.7526 755.478C32.1651 728.737 27.2283 701.395 22.3947 674.109C19.7514 659.188 17.5816 644.033 15.5586 628.948C14.5719 621.592 16.3736 613.247 10.874 606.242C9.61656 597.619 12.7282 589.702 14.135 581.553C17.5076 562.019 22.7636 542.858 28.7207 523.956C35.094 503.733 42.0903 483.694 52.5984 465.129C54.1796 462.335 55.0342 458.882 59.4692 456.929C59.4692 462.773 60.1572 468.284 59.2702 473.53C58.4308 478.493 57.8948 483.454 57.8472 488.397C57.514 523.045 56.5231 557.722 58.3621 592.329C59.4327 612.474 61.2604 632.728 64.8494 652.552C68.9474 675.187 73.1912 697.849 78.8905 720.21C84.7822 743.327 91.4364 766.223 99.518 788.603C108.286 812.885 118.54 836.587 129.936 859.863C142.112 884.734 156.27 908.334 171.023 931.636C181.15 947.633 192.531 962.743 204.369 977.561C221.625 999.159 240.096 1019.56 259.884 1038.85C282.303 1060.69 306.308 1080.53 332.113 1098.27C354.048 1113.35 376.994 1126.56 400.485 1139.09C429.3 1154.45 459.291 1167 489.695 1178.48C518.16 1189.23 547.182 1198.63 576.507 1206.84C609.928 1216.19 643.533 1224.89 677.139 1233.56C703.721 1240.42 730.278 1247.51 757.124 1253.17C776.201 1257.2 795.08 1262 814.098 1266.22C834.755 1270.81 855.038 1277.17 875.781 1281.25C894.666 1284.95 913.222 1289.82 931.851 1294.44C963.943 1302.41 996.138 1309.95 1028.01 1318.83C1055.66 1326.54 1083.76 1332.72 1111.29 1340.84C1137.01 1348.42 1163 1355.04 1188.66 1362.93C1218.74 1372.18 1248.74 1381.74 1278.16 1392.8C1305.15 1402.94 1331.94 1413.75 1358.26 1425.7C1386.67 1438.6 1414.61 1452.38 1442 1467.28C1467.44 1481.11 1492.04 1496.37 1516.21 1512.31C1517 1512.82 1517.5 1513.77 1518.1 1515.22Z" fill="#DEDEDE"/>
<path d="M2405.58 1712.32C2406.44 1711.65 2407.06 1711.38 2407.99 1710.72C2409.95 1707.99 2412.88 1708.17 2415.59 1706.53C2416.15 1706.21 2416.98 1705.93 2417.33 1705.67C2436.86 1698.91 2457.1 1700.02 2476.81 1697.35C2522.65 1691.14 2568.76 1687.22 2614.77 1682.62C2649.21 1679.18 2683.58 1675.15 2717.92 1671.07C2758.88 1666.21 2799.93 1662.02 2840.87 1656.95C2877.52 1652.41 2914.2 1647.94 2950.83 1643.3C2989.13 1638.45 3027.44 1633.65 3065.69 1628.33C3129.16 1619.52 3191.53 1605.91 3253.08 1588.49C3289.6 1578.15 3325.35 1565.29 3360.95 1552.11C3365.33 1550.48 3369.97 1549.73 3375.12 1547.69C3394.61 1542.09 3413.2 1536.5 3431.94 1531.47C3449.52 1526.76 3466.63 1520.62 3483.86 1514.89C3500.14 1509.48 3516.07 1502.96 3532.03 1496.64C3555.41 1487.37 3578.15 1476.66 3600.48 1465.1C3629.97 1449.84 3658.48 1433.01 3684.53 1412.26C3685.85 1411.21 3687.04 1410.03 3689.49 1410.89C3689.21 1419.08 3685.85 1426.48 3682.2 1433.78C3674.19 1449.84 3664.26 1464.68 3653.31 1478.85C3632.52 1505.75 3608.96 1529.89 3583.15 1552.1C3557.63 1574.06 3530.61 1593.83 3501.92 1611.24C3466.21 1632.93 3428.6 1650.93 3389.66 1666.19C3362.28 1676.91 3334.22 1685.6 3305.84 1692.98C3288.71 1697.43 3271.31 1701.23 3253.85 1704.64C3235.74 1708.18 3217.52 1711.11 3199.32 1713.92C3190.25 1715.32 3181.06 1716.72 3171.82 1717.59C3154.7 1719.19 3137.61 1721.1 3120.51 1722.86C3103.1 1724.65 3085.6 1725.64 3068.29 1727.86C3052.14 1729.94 3035.85 1729.13 3019.81 1731.77C3017.53 1732.14 3015.18 1732.44 3012.89 1732.34C2990.64 1731.4 2968.68 1735.91 2946.41 1735.54C2924.85 1735.18 2903.31 1737.23 2881.76 1738.08C2807.2 1741 2732.64 1739.84 2658.09 1740.1C2635.76 1740.18 2613.44 1739.82 2591.12 1739.6C2589.16 1739.58 2587.21 1739.09 2584.48 1738.49C2581.73 1736.37 2579.29 1736.95 2577.04 1737C2529.25 1738.1 2481.53 1734.59 2432.86 1734.53C2431.96 1734.19 2431.25 1733.64 2430.84 1733.46C2417.66 1732.58 2404.86 1733.43 2392.1 1732.81C2388.1 1732.61 2380.46 1733.3 2386.91 1724.37C2387.54 1723.75 2387.71 1723.7 2387.74 1723.62C2389.14 1722.88 2390.22 1721.81 2391.95 1720.71C2393.41 1719.93 2394.34 1719.35 2395.64 1718.34C2396.49 1717.5 2396.99 1717.09 2398.01 1716.7C2398.49 1716.69 2399.28 1716.38 2399.6 1716.09C2400.84 1715.13 2401.99 1715.08 2403.05 1714.11C2403.09 1713.56 2403.47 1713.36 2403.59 1713.19C2403.72 1713.01 2404.6 1713.35 2404.6 1713.35C2404.6 1713.35 2405.32 1712.72 2405.58 1712.32Z" fill="#999999"/>
<path d="M1413.45 1676.26C1432.16 1684.46 1449.87 1693.43 1467.23 1702.98C1481.12 1710.61 1494.41 1719.33 1508.13 1729.36C1502.98 1731.54 1498.68 1732.45 1494.12 1732.4C1491.46 1732.37 1488.79 1732.4 1486.13 1732.37C1460.25 1732.06 1434.57 1736.39 1408.64 1735.43C1388.73 1734.69 1368.97 1738.52 1349.02 1737.78C1340.03 1737.46 1331.01 1737.39 1322.03 1737.83C1244.19 1741.62 1166.3 1739.68 1088.43 1740.12C1072.11 1740.21 1055.66 1741.04 1039.5 1739.34C1017.57 1737.04 995.575 1739.53 973.821 1737.42C952.599 1735.36 931.311 1736.6 910.216 1734.55C885.156 1732.11 859.964 1732.02 834.976 1729.57C815.243 1727.63 795.385 1727.1 775.77 1724.56C752.863 1721.6 729.731 1720.4 707.001 1716.49C688.134 1713.26 669.118 1711.15 650.27 1707.67C622.792 1702.59 595.637 1696.39 568.701 1689.11C528.799 1678.33 490.031 1664.31 452.652 1646.69C419.34 1630.99 386.926 1613.54 356.707 1592.37C319.341 1566.2 284.469 1537.13 254.311 1502.67C240.094 1486.43 226.7 1469.57 215.436 1451.15C208.544 1439.88 201.991 1428.36 198.716 1415.35C198.299 1413.69 198.007 1412.14 199.447 1410.28C205.568 1412.09 209.534 1417.41 214.501 1420.95C246.735 1443.92 281.286 1462.65 316.992 1479.56C335.255 1488.21 354.149 1495.27 373.159 1503.9C374.172 1504.48 374.561 1504.73 375.577 1505.28C377.555 1506.45 378.904 1507.32 380.802 1508.45C400.634 1520.51 418.409 1534.6 438.171 1545.73C479.189 1568.84 522.194 1587.11 567.076 1601.32C618.845 1617.71 671.423 1630.37 725.002 1639.19C763.038 1645.45 800.943 1652.48 839.42 1655.62C841.76 1655.81 843.985 1656.51 846.954 1657.61C861.168 1660.22 874.696 1661.49 889.209 1661.52C898.116 1663.62 906.406 1662.65 915.409 1663.81C939.934 1667.81 963.73 1669.58 988.585 1669.13C995.509 1668.92 1001.53 1668.97 1008.44 1669.66C1010.57 1669.96 1011.79 1670.14 1013.95 1670.39C1091.54 1673.9 1168.23 1672.58 1244.92 1672.79C1254.21 1672.82 1263.51 1672.71 1273.75 1672.95C1281.99 1672.98 1289.33 1674.05 1297.45 1672.04C1312.81 1669.98 1327.36 1671.58 1342.75 1670.68C1344.82 1670.42 1346 1670.25 1348.06 1669.91C1356.07 1668.69 1363.26 1669.21 1371.33 1669.01C1384.34 1669.32 1396.53 1668.83 1408.87 1673.77C1409.56 1674.36 1409.67 1674.36 1409.69 1674.41C1410.76 1675.02 1411.72 1675.75 1413.45 1676.26Z" fill="#999999"/>
<path d="M1862.63 1985.87C1864 1993.94 1863.67 2002.05 1861.31 2010.17C1859.48 2016.51 1859.66 2023.29 1858.73 2029.86C1854.21 2062.02 1846.29 2093.38 1836.69 2124.26C1826.85 2155.91 1813.84 2186.36 1798.4 2215.79C1783.07 2245 1764.93 2272.38 1744.19 2297.85C1718.72 2329.13 1689.44 2356.61 1656.55 2380.26C1635.18 2395.63 1612.98 2409.48 1589.55 2421.38C1562.65 2435.05 1534.88 2446.57 1506.06 2455.7C1464.93 2468.75 1423.44 2480.26 1380.94 2487.96C1363.41 2491.14 1345.98 2494.9 1328.37 2497.57C1320.87 2498.71 1313.21 2499.08 1305.62 2500.02C1291.2 2501.79 1276.63 2502.33 1262.19 2503.95C1228.68 2507.7 1195.07 2505.88 1161.51 2505.87C1142.95 2505.87 1124.29 2504.69 1105.87 2502.43C1091.77 2500.7 1077.5 2499.92 1063.59 2497.49C1051.29 2495.34 1038.76 2493.99 1026.69 2490.49C1026.06 2490.3 1025.09 2490.08 1024.75 2490.39C1022.81 2492.15 1025.59 2491.85 1025.97 2493.27C1024.04 2494.7 1022.18 2493.98 1020.42 2492.99C1005.68 2484.65 989.71 2478.87 974.751 2471.01C953.855 2460.02 933.552 2448.08 913.765 2435.14C892.551 2421.27 872.922 2405.48 853.873 2388.91C836.032 2373.38 819.322 2356.72 804.299 2338.38C797.377 2329.93 789.833 2321.99 783.444 2311.22C790.353 2312.51 794.226 2316.49 798.459 2319.55C815.156 2331.62 832.471 2342.65 850.541 2352.58C864.819 2360.42 879.256 2367.89 894.041 2374.73C914.853 2384.36 936.226 2392.53 957.738 2400.43C987.657 2411.42 1018.58 2418.78 1049.64 2425.29C1062.5 2427.99 1075.57 2430.36 1088.74 2432.06C1104.88 2434.13 1121.09 2434.81 1137.16 2436.63C1170.74 2440.43 1204.32 2438.66 1237.82 2437.99C1255.55 2437.64 1273.51 2435.99 1291.25 2433.81C1303.06 2432.37 1314.72 2429.74 1326.49 2427.95C1348.76 2424.56 1370.56 2418.97 1392.34 2413.5C1414.52 2407.93 1436.48 2401.49 1458.2 2394.17C1487.83 2384.18 1516.75 2372.5 1545.01 2359.24C1563.33 2350.65 1581.09 2340.9 1598.57 2330.6C1622.06 2316.76 1644.82 2301.87 1666.24 2285.03C1696.56 2261.19 1725.06 2235.55 1750.18 2205.94C1770.47 2182.02 1788.76 2156.9 1805.15 2130.28C1818.75 2108.19 1830.09 2084.88 1839.69 2060.85C1847.75 2040.64 1854.31 2019.84 1859.19 1998.54C1860.14 1994.41 1859.1 1989.79 1862.63 1985.87Z" fill="#DEDEDE"/>
<path d="M1854.08 2633.8C1856.04 2632.98 1855.89 2638.55 1858.22 2634.34C1864.03 2623.87 1869.38 2613.11 1875.85 2603.07C1887.42 2585.09 1900.58 2568.43 1919.61 2557.51C1921.34 2556.52 1922.97 2555.28 1924.81 2554.57C1930.4 2552.44 1931.98 2553.45 1932.33 2559.28C1933.91 2585.76 1936.73 2612.14 1938.29 2638.65C1939.96 2667.11 1940.38 2695.7 1943.14 2723.99C1945.54 2748.52 1943.8 2773.07 1946.44 2797.43C1948.96 2820.7 1945.97 2844.07 1948.02 2867.21C1952.48 2917.69 1949.39 2968.23 1950.65 3018.72C1951.58 3056 1951.65 3093.4 1949.61 3130.6C1948.41 3152.42 1948.87 3174.38 1946 3196.11C1945.87 3197.1 1945.62 3198.09 1945.6 3199.08C1945.1 3223.23 1941.84 3247.19 1939.69 3271.2C1938.41 3285.53 1936.95 3300.1 1933.12 3314.23C1931.66 3319.6 1931.93 3325.44 1930.71 3331.53C1922.98 3324.6 1921.29 3314.43 1916.54 3305.81C1908.36 3290.97 1903.37 3274.64 1897.36 3258.89C1891.76 3244.18 1886.44 3229.16 1882.68 3213.7C1879.1 3198.97 1873.85 3184.63 1870.58 3169.84C1865.88 3148.56 1860.68 3127.41 1857.72 3105.7C1855.71 3091.04 1853.76 3076.26 1850.71 3061.72C1850.44 3060.43 1850.4 3059.06 1850.44 3057.74C1850.98 3041.1 1848.62 3024.59 1847.59 3008.06C1844.79 2963.23 1843.93 2918.39 1844.72 2873.54C1845.25 2843.62 1844.76 2813.63 1846.46 2783.78C1847.36 2767.86 1846.51 2751.85 1848.35 2736.11C1850.37 2718.85 1849.31 2701.59 1850.65 2684.4C1851.58 2672.55 1853.78 2660.82 1854.05 2648.84C1854.16 2643.86 1852.16 2639.05 1854.08 2633.8Z" fill="#DEDEDE"/>
<path d="M1373.41 1670.81C1365.33 1673.06 1357.78 1671.04 1349.54 1672.15C1348.24 1672.38 1347.83 1672.55 1346.8 1672.94C1330.72 1673.39 1315.26 1673.6 1298.85 1673.8C1291.08 1674.43 1284.2 1673.39 1276.7 1674.7C1267.39 1675.35 1258.77 1676.04 1250.14 1676.06C1201.52 1676.17 1152.91 1676.14 1104.29 1676.08C1090.97 1676.07 1077.5 1677.05 1064.39 1675.33C1047.43 1673.11 1030.53 1674.47 1012.71 1673.37C1011.11 1672.98 1010.49 1672.7 1009.39 1672.29C1002.89 1671.93 996.911 1671.59 990.078 1670.87C968.654 1670.01 948.004 1670.74 927.696 1666.29C924.478 1665.58 921.126 1666.13 916.995 1665.75C907.76 1665.74 899.266 1667.43 890.376 1663.47C875.691 1663.67 861.99 1660.01 847.338 1660.34C843.216 1658.17 839.543 1658.4 835.888 1658.18C818.343 1657.13 801.012 1654.35 783.734 1651.28C776.893 1650.06 769.97 1649.53 763.109 1648.52C721.258 1642.38 679.758 1634.51 638.679 1624.49C610.465 1617.61 582.639 1609.44 555.032 1600.29C514.99 1587.01 476.48 1570.58 439.771 1549.86C421.523 1539.56 404.187 1527.85 387.23 1515.57C385.105 1514.03 383.403 1511.91 381.427 1509.38C383.613 1507.13 385.664 1508.14 387.913 1508.98C416.457 1519.62 445.475 1528.89 474.838 1536.91C493.913 1542.12 513.261 1546.41 532.611 1550.64C550.406 1554.54 568.367 1557.34 586.2 1560.88C611.234 1565.85 636.541 1568.61 661.799 1571.92C678.24 1574.08 694.794 1574.83 711.186 1576.69C730.631 1578.88 750.156 1579.57 769.6 1581.21C790.447 1582.96 811.645 1580.42 832.518 1582.01C881.711 1585.76 930.968 1582.26 980.129 1584.58C1003.3 1585.67 1026.45 1587.73 1049.54 1590.07C1063.7 1591.51 1077.76 1593.74 1092.04 1594.37C1099.59 1594.7 1107.07 1596.38 1114.59 1597.46C1130.3 1599.72 1146.03 1601.83 1161.71 1604.31C1172.16 1605.96 1182.55 1608.01 1192.92 1610.14C1210.75 1613.8 1228.65 1617.22 1246.32 1621.54C1267.84 1626.81 1289.3 1632.45 1310.54 1638.74C1335.93 1646.26 1361.1 1654.52 1385.5 1664.93C1387.32 1665.71 1389.21 1666.34 1391.47 1667.62C1386.81 1674.41 1379.99 1669.29 1373.41 1670.81Z" fill="#DEDEDE"/>
<path d="M2023.23 2208.4C2023.96 2206.46 2024.44 2205.16 2025.2 2203.24C2024.99 2202.22 2024.81 2201.82 2024.94 2201.4C2025.07 2200.97 2025.21 2200.75 2025.93 2200.63C2026.79 2199.84 2027.09 2199.19 2027.54 2198C2028.44 2197.62 2028.96 2197.32 2029.04 2196.14C2029.15 2194.87 2029.44 2194.06 2029.85 2192.6C2030.31 2191.64 2030.65 2191.34 2031.27 2190.4C2031.9 2188.48 2032.23 2187.18 2032.79 2185.25C2032.72 2183.92 2032.79 2183.28 2033.75 2182.43C2034.42 2181.37 2034.64 2180.6 2035.01 2179.23C2035.12 2178.09 2035.07 2177.54 2035.85 2176.93C2037 2175.63 2037.33 2174.41 2037.81 2172.56C2041.11 2167.56 2043.64 2170.3 2045.95 2172.79C2048.68 2175.74 2050.47 2179.36 2052.43 2182.84C2094.52 2257.54 2151.22 2318.75 2221.79 2367.39C2290.52 2414.76 2366.17 2444.82 2447.66 2462.19C2507.4 2474.92 2567.59 2479.85 2628.24 2476.88C2671.38 2474.76 2714.3 2469.07 2756.86 2460.7C2803.04 2451.63 2848.25 2439.44 2892.95 2424.91C2930.36 2412.75 2966.85 2398.27 3003.21 2383.39C3006.69 2381.97 3010.26 2378.9 3014.23 2383.32C3014.23 2384.12 3014.1 2384.08 3014.11 2384.15C3013.53 2384.44 3013.02 2384.8 3012.19 2385.52C2983.72 2405.95 2953.89 2423.17 2923.36 2439.34C2890.58 2456.7 2856.68 2471.5 2821.83 2483.92C2794.53 2493.65 2766.82 2502.39 2738.36 2508.35C2723.87 2511.38 2709.58 2515.54 2694.85 2517.3C2678.47 2519.26 2662.24 2522.16 2645.8 2523.98C2611.42 2527.78 2577.01 2529.18 2542.53 2528.26C2526.65 2527.84 2510.69 2527.06 2494.87 2525.61C2480.11 2524.25 2465.19 2523.15 2450.63 2520.59C2424.1 2515.93 2397.51 2511.29 2371.36 2504.52C2329.43 2493.67 2288.61 2479.58 2249.26 2461.63C2221.52 2448.97 2194.88 2434.08 2169.21 2417.45C2136.23 2396.08 2105.21 2372.43 2077.06 2344.9C2060.23 2328.45 2043.64 2311.84 2028.84 2293.53C2021.34 2284.24 2014.4 2274.5 2007.22 2264.95C2004.18 2260.91 2003.74 2257.06 2005.91 2252.03C2011.67 2238.73 2016.64 2225.09 2022.03 2210.85C2022.41 2209.77 2022.7 2209.4 2023.23 2208.4Z" fill="#999999"/>
<path d="M1847.22 2411.85C1849.24 2418.89 1845.6 2424.89 1843.79 2431.12C1837.62 2452.42 1830.54 2473.47 1822.26 2494.03C1813.23 2516.44 1803.85 2538.74 1792.42 2560.08C1780.19 2582.91 1767.16 2605.25 1752.44 2626.62C1729.57 2659.85 1703.46 2690.09 1673.78 2717.49C1649.94 2739.5 1623.87 2758.2 1596.01 2774.49C1571.66 2788.74 1546.05 2800.54 1520.28 2812.03C1488.78 2826.08 1456.19 2837.04 1423.42 2847.48C1391.01 2857.81 1358.01 2866.19 1324.76 2873.21C1304.44 2877.5 1284.09 2881.88 1263.41 2884.71C1249.73 2886.58 1236.04 2889.31 1222.33 2891.2C1212.52 2892.55 1202.44 2893.23 1192.75 2894.9C1179.66 2897.15 1166.19 2895.9 1153.38 2899.89C1152.16 2900.27 1150.74 2900.01 1148.52 2899.98C1146.86 2900.74 1145.92 2901.08 1144.09 2900.59C1131.59 2897.86 1120.98 2892.17 1109.78 2888.12C1104.88 2886.35 1100.28 2883.71 1093.84 2880.67C1109.86 2877.77 1124 2875.35 1138.35 2873.83C1149.84 2872.61 1161.2 2870.01 1172.53 2867.64C1190.64 2863.87 1208.7 2859.89 1226.73 2855.78C1232.23 2854.53 1237.51 2852.35 1242.98 2850.97C1283.57 2840.66 1322.96 2826.76 1361.88 2811.43C1388.75 2800.85 1415.13 2789.06 1440.67 2775.64C1479.52 2755.23 1516.72 2732.04 1551.85 2705.64C1571.51 2690.87 1589.64 2674.41 1607.85 2657.91C1643.37 2625.71 1677.21 2591.82 1711.1 2557.97C1726.17 2542.92 1741.28 2527.83 1755.17 2511.71C1766.5 2498.58 1779.45 2487.08 1790.68 2473.94C1804.7 2457.54 1819.77 2442.06 1832.99 2424.95C1836.82 2419.99 1841.26 2415.4 1847.22 2411.85Z" fill="#DEDEDE"/>
<path d="M3014.94 2384.21C3011.2 2380.89 3008.62 2383.93 3006.16 2384.95C2984.75 2393.82 2963.45 2402.94 2941.68 2410.94C2900.95 2425.92 2859.83 2439.55 2817.6 2449.84C2794.83 2455.39 2772.08 2460.79 2748.95 2464.78C2731.99 2467.71 2715.12 2470.68 2697.98 2472.64C2680.21 2474.68 2662.36 2475.88 2644.67 2477.96C2614.76 2481.49 2584.91 2480.03 2555.12 2479.39C2541.44 2479.1 2527.43 2478.25 2513.7 2476.07C2500 2473.9 2486.26 2471.94 2472.54 2469.92C2454.53 2467.28 2436.84 2463.08 2419.17 2458.87C2392.09 2452.41 2365.59 2443.82 2339.77 2433.63C2312.97 2423.06 2287.03 2410.4 2261.81 2396.25C2233.9 2380.59 2207.97 2362.14 2183.12 2342.24C2156.6 2321 2132.71 2296.91 2110.56 2271.08C2093.04 2250.64 2077.18 2228.99 2062.73 2206.34C2057.04 2197.42 2052.51 2187.78 2047.36 2178.52C2045.91 2175.92 2044.24 2173.42 2042.49 2171.01C2041.36 2169.45 2040.24 2170.67 2038.6 2171.7C2045.47 2152.97 2052.98 2133.99 2061.09 2113.5C2069.43 2124.76 2076.61 2134.56 2083.92 2144.27C2110.77 2179.96 2140.65 2212.96 2173.23 2243.47C2189.21 2258.43 2205.37 2273.3 2222.36 2287.07C2241.41 2302.52 2261.16 2317.12 2281.55 2330.87C2295.64 2340.36 2310.11 2349.17 2324.76 2357.69C2352.61 2373.9 2381.49 2388.08 2411.51 2399.86C2434.06 2408.71 2457.06 2416.24 2480.51 2422.29C2505.51 2428.73 2530.7 2433.83 2556.49 2436.68C2572.59 2438.46 2588.96 2437.82 2604.86 2441.57C2607.4 2442.16 2610.17 2441.78 2612.84 2441.78C2632.17 2441.79 2651.5 2441.98 2670.83 2441.73C2693.7 2441.43 2716.44 2439.33 2739.15 2436.51C2747.03 2435.54 2755.04 2435.31 2762.99 2434.54C2777.2 2433.17 2791.15 2430.37 2805.21 2428.19C2823.18 2425.39 2840.81 2420.92 2858.56 2417C2879.31 2412.41 2899.47 2405.88 2919.68 2399.5C2947.21 2390.8 2974.04 2380.18 3000.36 2368.36C3024.92 2357.32 3048.65 2344.61 3071.57 2330.41C3076.37 2327.44 3081.24 2324.59 3086.78 2321.56C3087.97 2321.52 3088.47 2321.58 3088.98 2322.41C3085.03 2331.68 3076.44 2335.54 3070.05 2341.58C3056.84 2354.08 3041.66 2364.23 3027.33 2375.38C3023.47 2378.39 3020.98 2383.24 3014.94 2384.21Z" fill="#DEDEDE"/>
<path d="M503.207 159.93C503.381 168.375 499.236 175.674 496.152 183.209C483.473 214.192 471.883 245.534 461.273 277.306C452.463 303.685 444.613 330.289 437.687 357.18C432.751 376.345 428.836 395.74 425.175 415.214C422.361 430.186 420.072 445.25 418.472 460.298C416.053 483.057 414.336 506.008 415.804 528.949C417.008 547.777 418.668 566.592 420.751 585.342C421.843 595.17 424.067 604.894 426.153 614.585C431.299 638.497 437.713 662.058 445.5 685.27C453.629 709.497 462.665 733.363 473.191 756.631C486.875 786.88 502.302 816.254 519.404 844.713C528.96 860.615 539.042 876.201 549.829 891.45C548.249 891.693 550.102 891.348 549.222 892.349C549.007 892.593 548.619 892.968 548.428 892.908C532.65 887.988 516.844 883.008 501.737 876.351C482.351 867.808 463.248 858.58 444.38 847.415C440.293 847.229 438.45 844.332 435.357 842.384C423.107 827.152 413.497 810.835 404.235 794.313C390.074 769.048 378.581 742.674 369.441 715.116C362.86 695.273 357.525 675.288 353.611 654.769C350.284 637.325 347.066 620.032 345.725 602.208C344.056 580.03 341.716 557.894 342.408 535.662C342.842 521.717 343.001 507.683 344.254 493.843C345.535 479.701 346.112 465.354 348.797 451.422C353.857 425.171 358.446 398.745 366.527 373.198C375.145 345.955 385.715 319.463 398.823 293.999C410.409 271.492 423.496 249.9 438.632 229.67C457.586 204.335 478.451 180.629 503.207 159.93Z" fill="#989898"/>
<path d="M3375.5 1546.89C3369.97 1553.72 3361.45 1554.87 3353.94 1557.67C3331.02 1566.22 3307.82 1574.01 3284.65 1581.85C3266.15 1588.11 3247.31 1593.25 3228.45 1598.32C3205.48 1604.49 3182.27 1609.53 3159.14 1614.98C3138.55 1619.84 3117.61 1622.48 3097.01 1627.14C3083.54 1630.19 3069.51 1630.68 3055.77 1632.56C3045.62 1633.96 3035.55 1635.91 3025.4 1637.32C3018.84 1638.23 3012.22 1638.63 3005.63 1639.53C2988.62 1641.86 2971.4 1642.89 2954.5 1645.82C2938.19 1648.65 2921.72 1650.02 2905.37 1652.18C2887.02 1654.61 2868.71 1657.96 2850.09 1658.4C2843.53 1658.55 2837.02 1660.11 2830.53 1661.04C2808.27 1664.23 2785.85 1665.85 2763.59 1668.72C2746.25 1670.95 2728.88 1673.59 2711.54 1675.17C2691.08 1677.02 2670.79 1680.3 2650.29 1681.84C2640.49 1682.58 2630.63 1683.84 2620.79 1684.83C2605.98 1686.33 2591.21 1688.15 2576.41 1689.74C2559.63 1691.53 2542.86 1693.38 2526.02 1694.7C2509.23 1696.01 2492.4 1697.76 2475.72 1699.94C2456.98 1702.38 2438.15 1703.25 2418.55 1705.42C2422.27 1700.51 2428.58 1698.28 2434.31 1695.43C2464.58 1680.37 2495.43 1666.6 2527.33 1655.26C2559.51 1643.82 2592.13 1633.95 2625.25 1625.67C2654.14 1618.44 2683.31 1612.69 2712.56 1607.19C2736.64 1602.67 2760.88 1599.73 2785.09 1596.3C2811.98 1592.48 2839.1 1591.07 2866.06 1588.19C2909.47 1583.55 2952.95 1583.98 2996.46 1583.93C3008.11 1583.91 3019.87 1584.89 3031.41 1583.74C3059.93 1580.88 3088.52 1582.77 3117.02 1581.46C3133.23 1580.72 3149.49 1579.57 3165.64 1578.12C3183.1 1576.55 3200.73 1576.25 3218.02 1573.6C3242.2 1569.88 3266.7 1568.11 3290.62 1563.26C3314.22 1558.47 3338.39 1556.35 3361.46 1548.86C3365.8 1547.45 3370.51 1547.16 3375.5 1546.89Z" fill="#DEDEDE"/>
<path d="M2702.25 2872.46C2700.39 2874.75 2697.98 2874.42 2695.69 2874.4C2676.71 2874.26 2657.72 2874.5 2638.76 2873.78C2619.6 2873.05 2600.48 2871.14 2581.36 2869.57C2562.88 2868.06 2544.5 2865.62 2526.12 2863.53C2513.16 2862.05 2500.18 2859.13 2487.24 2856.81C2470.95 2853.89 2454.88 2850.16 2438.72 2846.73C2421.87 2843.14 2405.57 2837.74 2389.26 2832.42C2353.72 2820.81 2320.27 2804.89 2289.91 2782.9C2265.88 2765.5 2244.86 2744.86 2224.85 2722.97C2206.2 2702.56 2189.31 2680.84 2173.63 2658.21C2154.16 2630.12 2135.99 2601.14 2119.51 2571.15C2111.21 2556.06 2102.45 2541.15 2095.2 2525.55C2088.92 2512.04 2081.81 2498.91 2076.27 2484.43C2080.19 2484.24 2082.06 2487.31 2084.1 2489.74C2098.22 2506.6 2114.12 2521.81 2128.82 2538.08C2148.94 2560.36 2170.59 2581.05 2191.76 2602.26C2204.66 2615.19 2218.5 2627.19 2231.86 2639.67C2238.66 2646.02 2244.78 2653.04 2251.82 2659.17C2270.12 2675.09 2287.75 2691.81 2307.53 2705.94C2324.81 2718.28 2341.87 2731.05 2359.93 2742.17C2383.67 2756.79 2407.92 2770.57 2433 2782.91C2458.04 2795.23 2483.55 2806.48 2509.57 2816.4C2530.92 2824.54 2552.53 2832.07 2574.44 2838.79C2591.85 2844.13 2609.31 2849.27 2626.88 2853.99C2649.26 2860.01 2671.81 2865.34 2694.74 2868.96C2697.29 2869.36 2700.06 2869.74 2702.25 2872.46Z" fill="#DEDEDE"/>
<path d="M1250.45 2922.8C1268.8 2921.62 1287.68 2922.26 1306.49 2924.17C1311.27 2924.65 1315.6 2922.79 1320.28 2922.75C1336.87 2922.63 1353.46 2922.13 1370.97 2921.88C1371.23 2923.3 1370.09 2923.76 1368.69 2923.82C1348.58 2924.63 1328.47 2925.79 1308.35 2926.17C1289.2 2926.53 1270.11 2924.53 1250.45 2922.8Z" fill="#7A9479"/>
<path d="M1372.93 2921.95C1373.45 2918.54 1376.49 2919.66 1378.93 2919.62C1396.9 2919.31 1414.33 2914.99 1432 2912.52C1440.82 2911.28 1449.58 2909.64 1459.21 2908.15C1454.34 2912.52 1447.25 2912.22 1440.69 2913.46C1426.76 2916.1 1412.77 2918.49 1398.72 2920.4C1390.51 2921.51 1382.15 2921.51 1372.93 2921.95Z" fill="#7A9479"/>
<path d="M476.904 483.279C475.352 483.164 474.494 482.098 474.508 480.71C474.653 465.525 473.283 450.314 475.894 434.59C478.754 443.841 476.988 453.789 477.415 463.671C477.688 469.965 477.379 476.283 476.904 483.279Z" fill="#999898"/>
<path d="M1196.36 2914.78C1204.56 2912.59 1212.7 2916.02 1221.02 2917.15C1229.76 2918.35 1238.49 2919.42 1247.82 2920.67C1235.44 2922.89 1222.92 2919.72 1210.38 2917.65C1205.87 2916.9 1201.24 2916.66 1196.36 2914.78Z" fill="#7A9479"/>
<path d="M484.887 559.421C480.9 550.728 480.44 540.894 479.244 530.627C480.271 531.06 481.369 532.068 481.555 533.222C482.929 541.753 484.121 550.313 484.887 559.421Z" fill="#999898"/>
<path d="M1155.64 2904.51C1165.94 2904.48 1175.02 2908.86 1184.71 2910.59C1187.56 2911.09 1190.55 2911.31 1193.84 2912.8C1191.42 2914.06 1188.48 2913.9 1185.65 2913.2C1176.27 2910.89 1166.92 2908.43 1156.81 2905.8C1155.81 2905.35 1155.56 2905.12 1155.64 2904.51Z" fill="#7A9479"/>
<path d="M1373.44 1670.93C1378.54 1668.8 1384.81 1671.2 1391.32 1668.74C1398.08 1668.07 1403.68 1670 1409.25 1673.74C1398.09 1670.16 1386.11 1671.56 1373.44 1670.93Z" fill="#999898"/>
<path d="M598.186 774.776C591.905 773.288 588.37 767.906 584.412 762.42C590.207 764.568 593.651 769.883 598.186 774.776Z" fill="#999898"/>
<path d="M480.193 401.531C479.093 395.364 481.436 389.255 483.742 382.526C484.121 388.545 483.367 394.965 480.193 401.531Z" fill="#999898"/>
<path d="M3089.68 2320.07C3092.61 2314.22 3099.14 2313.65 3103.89 2307.54C3103.15 2316.4 3096.53 2317.46 3092.46 2321.47C3091.18 2321.28 3090.51 2320.93 3089.68 2320.07Z" fill="#A6B9A8"/>
<path d="M502.713 627.516C497.73 622.492 497.392 615.273 494.743 608.313C500.111 613.016 500.062 620.688 502.713 627.516Z" fill="#999898"/>
<path d="M1088.82 1479.99C1090.96 1480.07 1092.25 1480.15 1093.53 1480.23C1083.68 1481.95 1073.82 1482.33 1063.92 1481.13C1071.87 1479.25 1079.96 1480.34 1088.82 1479.99Z" fill="#A6B9A8"/>
<path d="M3862.07 2304.81C3862.89 2303.94 3863.64 2303.91 3864.95 2303.88C3866.31 2308.82 3866.15 2313.78 3865.58 2319.33C3859.61 2315.56 3863.02 2310.04 3862.07 2304.81Z" fill="#7A9479"/>
<path d="M523.174 676.061C518.819 673.057 517.55 667.797 515.714 662.482C519.954 665.599 521.457 670.6 523.174 676.061Z" fill="#999898"/>
<path d="M515.11 658.003C509.584 656.021 510.395 649.802 507.842 644.776C512.761 647.141 512.655 652.911 515.11 658.003Z" fill="#999898"/>
<path d="M500.206 918.58C504.742 919.272 506.815 923.526 509.977 927.255C505.35 926.624 503.147 922.572 500.206 918.58Z" fill="#7A9479"/>
<path d="M492.594 595.495C489.736 592.774 488.38 589.24 489.34 584.553C490.845 587.63 493.576 590.81 492.594 595.495Z" fill="#999898"/>
<path d="M459.601 875.274C463.692 877.321 466.916 880.904 469.399 885.786C464.973 883.989 461.873 880.372 459.601 875.274Z" fill="#7A9479"/>
<path d="M715.842 1733.15C713.089 1733.95 711.542 1732.98 709.637 1730.78C714.617 1730.78 719.092 1730.78 724.041 1730.78C721.792 1733.07 718.571 1731.21 715.842 1733.15Z" fill="#A6B9A8"/>
<path d="M434.742 842.872C438.324 841.579 440.797 843.504 443.484 846.368C443.047 847.543 442.195 848.233 440.983 849.669C437.452 849.172 435.474 846.908 434.742 842.872Z" fill="#7A9479"/>
<path d="M488.59 365.652C488.738 362.167 488.044 358.023 491.379 354.377C491.325 357.852 491.147 361.821 488.59 365.652Z" fill="#999898"/>
<path d="M487.416 572.018C484.631 570.701 483.847 568.049 484.413 564.315C487.88 565.357 487.016 568.656 487.416 572.018Z" fill="#999898"/>
<path d="M505.862 318.253C505.436 314.852 506.875 311.659 509.391 308.313C509.94 311.719 508.663 315.022 505.862 318.253Z" fill="#999898"/>
<path d="M498.362 335.472C497.646 332.402 498.981 329.427 501.354 326.303C501.299 329.163 501.028 332.44 498.362 335.472Z" fill="#999898"/>
<path d="M1143.7 2900.89C1144.33 2900.15 1145.27 2900.08 1146.93 2899.96C1148.82 2902.34 1151.92 2900.93 1153.63 2903.4C1150.35 2904.13 1146.89 2904.02 1143.7 2900.89Z" fill="#999999"/>
<path d="M561.839 735.316C558.403 735.135 557.297 732.128 556.043 728.637C559.885 728.597 559.504 732.73 561.839 735.316Z" fill="#999898"/>
<path d="M482.136 900.634C485.062 900.251 486.388 902.592 487.977 905.302C485.075 905.64 483.863 903.173 482.136 900.634Z" fill="#7A9479"/>
<path d="M490.216 908.563C493.13 908.093 494.167 910.797 496.08 913.145C492.963 913.876 491.863 911.258 490.216 908.563Z" fill="#7A9479"/>
<path d="M545.813 713.66C542.775 713.58 542.81 710.53 541.231 708.082C544.345 707.954 544.861 710.721 545.813 713.66Z" fill="#999898"/>
<path d="M535.764 697.767C532.89 697.463 532.382 694.673 530.905 692.142C534.03 692.158 534.777 694.829 535.764 697.767Z" fill="#999898"/>
<path d="M513.87 300.367C513.343 297.881 514.864 295.88 516.805 293.63C517.752 296.284 516.367 298.36 513.87 300.367Z" fill="#999898"/>
<path d="M523.684 282.353C523.363 279.87 524.694 277.77 526.931 275.689C527.509 278.295 526.435 280.52 523.684 282.353Z" fill="#999898"/>
<path d="M441.613 853.025C444.094 852.874 444.9 854.965 445.998 857.369C443.404 857.671 442.552 855.588 441.613 853.025Z" fill="#7A9479"/>
<path d="M1564.26 1441.65C1562.38 1441.21 1561.14 1440.45 1561.72 1438.99C1562.09 1438.04 1563.48 1438.08 1564.38 1438.56C1565.73 1439.28 1566.16 1440.35 1564.26 1441.65Z" fill="#A6B9A8"/>
<path d="M568.43 742.815C566.049 743.012 565.455 740.758 564.001 738.742C566.588 738.213 567.508 740.229 568.43 742.815Z" fill="#999898"/>
<path d="M573.805 749.62C571.575 749.877 570.401 748.208 569.178 746.049C571.471 745.706 572.933 746.997 573.805 749.62Z" fill="#999898"/>
<path d="M1039.32 2518.04C1038.22 2519.91 1037.12 2519.8 1036.36 2518.33C1036.16 2517.94 1036.44 2516.92 1036.82 2516.67C1037.76 2516.06 1038.61 2516.61 1039.32 2518.04Z" fill="#999999"/>
<path d="M1413.65 1675.88C1412.31 1677.4 1411.01 1676.52 1409.73 1674.95C1411.08 1674.05 1412.19 1674.64 1413.65 1675.88Z" fill="#999898"/>
<path d="M505.323 636.153C504.117 635.41 503.248 634.087 502.572 632.188C504.811 632.142 505.486 633.674 505.323 636.153Z" fill="#999898"/>
<path d="M551.508 721.828C549.561 721.936 549.116 720.292 548.295 718.417C550.49 717.918 551.32 719.349 551.508 721.828Z" fill="#999898"/>
<path d="M494.782 603.657C493.645 602.964 492.895 601.951 492.346 600.318C494.71 599.981 495.207 601.466 494.782 603.657Z" fill="#999898"/>
<path d="M450.721 864.146C452.769 863.923 453.391 865.44 453.831 867.608C451.787 867.845 451.136 866.334 450.721 864.146Z" fill="#7A9479"/>
<path d="M518.748 291.899C517.494 290.265 519.005 289.225 520.043 287.501C521.587 289.03 520.96 290.501 518.748 291.899Z" fill="#999898"/>
<path d="M485.305 376.098C483.715 374.56 484.881 373.203 486.157 371.447C488.03 372.971 486.933 374.403 485.305 376.098Z" fill="#999898"/>
<path d="M489.11 580.173C486.816 580.104 486.741 578.336 486.87 576.319C488.581 576.784 489.247 578.004 489.11 580.173Z" fill="#999898"/>
<path d="M477.579 416.163C475.822 414.57 477.248 413.294 478.631 411.605C480.397 413.209 479.005 414.483 477.579 416.163Z" fill="#999898"/>
<path d="M510.093 928.624C511.968 927.936 512.954 929.304 514.127 931.129C512.257 931.89 511.106 930.704 510.093 928.624Z" fill="#7A9479"/>
<path d="M493.158 350.279C492.025 349.014 492.409 347.836 493.659 346.355C496.228 347.685 494.806 348.941 493.158 350.279Z" fill="#999898"/>
<path d="M811.084 49.4896C809.759 49.7795 808.84 49.7617 808 49.4937C807.226 49.2464 807.327 48.6795 808.248 48.4045C809.427 48.0524 810.635 47.8653 811.084 49.4896Z" fill="#999898"/>
<path d="M1745.35 1290.71C1745.65 1291.92 1745.94 1293.1 1744.51 1292.8C1744.03 1292.7 1743.4 1292.04 1743.3 1291.54C1743 1290.12 1744.16 1290.38 1745.35 1290.71Z" fill="#999999"/>
<path d="M607.597 783.706C606.336 784.407 605.638 783.576 604.876 782.152C606.087 781.437 606.886 782.193 607.597 783.706Z" fill="#999898"/>
<path d="M3089.09 2319.74C3090.09 2319.95 3090.66 2320.37 3091.53 2321.22C3091.21 2322.05 3090.61 2322.44 3089.5 2322.99C3088.74 2322.88 3088.49 2322.59 3087.85 2321.88C3087.72 2320.83 3088.11 2320.33 3089.09 2319.74Z" fill="#999898"/>
<path d="M579.597 755.703C578.334 756.417 577.62 755.589 576.844 754.158C578.069 753.413 578.88 754.163 579.597 755.703Z" fill="#999898"/>
<path d="M1028.11 2495.08C1029.08 2493.61 1030.27 2493.96 1031.76 2495.29C1030.82 2496.44 1029.6 2496.23 1028.11 2495.08Z" fill="#999999"/>
<path d="M503.03 324.337C502.662 323.627 502.724 322.939 503.341 322.116C505.731 323.136 503.877 323.616 503.03 324.337Z" fill="#999898"/>
<path d="M538.042 701.422C537.42 701.613 536.833 701.257 536.277 700.363C536.899 700.175 537.488 700.525 538.042 701.422Z" fill="#999898"/>
<path d="M576.34 752.694C576.295 753.149 575.422 753.161 575.422 753.161C575.422 753.161 574.806 752.544 574.814 752.108C575.517 751.379 576.039 751.568 576.34 752.694Z" fill="#999898"/>
<path d="M530.475 688.984C529.66 689.461 529.229 689.159 529.123 688.094C529.949 687.527 530.419 687.818 530.475 688.984Z" fill="#999898"/>
<path d="M609.614 785.798C609.017 786.056 608.399 785.768 607.756 784.942C608.352 784.687 608.973 784.97 609.614 785.798Z" fill="#999898"/>
<path d="M553.174 724.077C552.398 724.787 551.839 724.546 551.474 723.369C552.051 723.108 552.624 723.34 553.174 724.077Z" fill="#999898"/>
<path d="M548.249 717.115C547.439 717.718 546.9 717.41 546.581 716.216C547.149 716.012 547.722 716.304 548.249 717.115Z" fill="#999898"/>
<path d="M477.53 895.541C478.191 894.794 478.681 894.949 478.937 896.044C478.865 896.473 478.078 896.491 478.078 896.491C478.078 896.491 477.521 895.934 477.53 895.541Z" fill="#7A9479"/>
<path d="M612.286 789.085C611.653 789.329 611.081 789.045 610.531 788.243C611.151 788.003 611.749 788.28 612.286 789.085Z" fill="#999898"/>
<path d="M480.086 898.509C480.696 898.242 481.322 898.543 481.989 899.394C481.387 899.656 480.744 899.366 480.086 898.509Z" fill="#7A9479"/>
<path d="M1155.48 2903.95C1155.97 2904.12 1156.01 2904.85 1156.04 2905.21C1155.44 2905.42 1154.81 2905.26 1154.09 2904.6C1154.33 2903.99 1154.66 2903.88 1155.48 2903.95Z" fill="#999999"/>
<path d="M474.363 892.339C474.949 892.082 475.565 892.362 476.203 893.181C475.615 893.438 475.003 893.157 474.363 892.339Z" fill="#7A9479"/>
<path d="M556.1 727.321C555.502 727.54 554.939 727.202 554.318 726.357C554.885 726.155 555.51 726.46 556.1 727.321Z" fill="#999898"/>
<path d="M563.898 737.504C563.294 737.752 562.683 737.437 562.031 736.58C562.623 736.339 563.257 736.64 563.898 737.504Z" fill="#999898"/>
<path d="M472.411 890.3C472.962 890.06 473.569 890.328 474.193 891.128C473.629 891.376 473.048 891.093 472.411 890.3Z" fill="#7A9479"/>
<path d="M376.038 1505.04C375.509 1505.49 374.812 1505.42 373.95 1504.78C374.48 1504.32 375.176 1504.41 376.038 1505.04Z" fill="#999898"/>
<path d="M470.367 888.283C470.915 888.036 471.527 888.308 472.173 889.114C471.616 889.365 471.024 889.083 470.367 888.283Z" fill="#7A9479"/>
<path d="M3673.22 1479.75C3673.52 1480.08 3673.4 1480.72 3672.91 1481.7C3672.62 1481.37 3672.7 1480.71 3673.22 1479.75Z" fill="#7A9479"/>
<path d="M584.376 760.856C583.683 761.348 583.22 761.072 582.866 760.09C583.555 759.424 584.098 759.659 584.376 760.856Z" fill="#999898"/>
<path d="M479.634 515.936C478.927 515.961 478.509 515.435 478.172 514.382C478.81 514.366 479.366 514.875 479.634 515.936Z" fill="#999898"/>
<path d="M495.8 342.168C495.385 342.241 494.92 341.444 494.92 341.444C494.92 341.444 495.393 340.652 495.854 340.614C496.76 341.113 496.727 341.62 495.8 342.168Z" fill="#999898"/>
<path d="M510.907 306.004C510.505 305.503 510.602 304.81 511.265 303.973C511.69 304.491 511.548 305.151 510.907 306.004Z" fill="#999898"/>
<path d="M2036.15 2176.85C2036.9 2177.55 2036.7 2178.1 2035.62 2178.56C2035.32 2178.04 2035.48 2177.44 2036.15 2176.85Z" fill="#999898"/>
<path d="M2033.69 2182.38C2034.15 2182.85 2034.11 2183.54 2033.53 2184.42C2033.07 2183.94 2033.13 2183.27 2033.69 2182.38Z" fill="#999898"/>
<path d="M2031.01 2189.88C2031.35 2190.38 2031.14 2190.98 2030.45 2191.77C2030.13 2191.29 2030.3 2190.64 2031.01 2189.88Z" fill="#999898"/>
<path d="M2028.39 2195.74C2029.29 2196.33 2029.2 2196.88 2028.14 2197.41C2027.22 2196.84 2027.31 2196.28 2028.39 2195.74Z" fill="#999898"/>
<path d="M2025.99 2200.64C2026.94 2201.12 2026.9 2201.71 2025.93 2202.44C2025.48 2201.99 2025.49 2201.38 2025.99 2200.64Z" fill="#999898"/>
<path d="M2022.93 2207.9C2023.34 2208.39 2023.21 2209.02 2022.6 2209.9C2022.21 2209.44 2022.3 2208.74 2022.93 2207.9Z" fill="#999898"/>
<path d="M602.332 778.652C601.657 779.271 601.183 779.071 600.861 778.08C601.53 777.376 602.037 777.557 602.332 778.652Z" fill="#999898"/>
<path d="M529.498 272.244C528.566 271.641 528.664 271.074 529.768 270.494C530.669 271.058 530.587 271.657 529.498 272.244Z" fill="#999898"/>
<path d="M504.936 157.81C505.338 158.418 505.162 159.075 504.452 159.807C504.064 159.207 504.211 158.533 504.936 157.81Z" fill="#989898"/>
<path d="M527.672 683.821C526.986 683.987 526.4 683.583 525.879 682.614C526.553 682.45 527.163 682.85 527.672 683.821Z" fill="#999898"/>
<path d="M456.715 872.16C457.257 871.903 457.844 872.129 458.426 872.867C457.678 873.559 457.125 873.314 456.715 872.16Z" fill="#7A9479"/>
<path d="M454.61 870.112C455.142 869.861 455.729 870.091 456.324 870.829C455.603 871.476 455.047 871.228 454.61 870.112Z" fill="#7A9479"/>
<path d="M3012.36 2385.89C3012.19 2385.19 3012.61 2384.61 3013.57 2384.13C3013.73 2384.82 3013.34 2385.42 3012.36 2385.89Z" fill="#999898"/>
<path d="M507.032 640.112C506.373 640.295 505.824 639.96 505.365 639.116C506.018 638.935 506.58 639.265 507.032 640.112Z" fill="#999898"/>
<path d="M581.609 757.804C581.007 758.061 580.392 757.769 579.754 756.937C580.353 756.683 580.975 756.969 581.609 757.804Z" fill="#999898"/>
<path d="M449.04 862.082C449.73 861.39 450.181 861.55 450.452 862.526C450.421 862.919 449.568 863.14 449.568 863.14C449.568 863.14 448.95 862.513 449.04 862.082Z" fill="#7A9479"/>
<path d="M447.064 859.923C447.682 859.307 448.115 859.47 448.395 860.39C448.383 860.767 447.593 860.88 447.593 860.88C447.593 860.88 447.022 860.321 447.064 859.923Z" fill="#7A9479"/>
<path d="M2773.69 1240.85C2772.12 1242.46 2770.67 1243.4 2769.68 1244.69C2767.15 1247.97 2766.62 1252.93 2761.52 1254C2754.27 1255.52 2747.06 1255.8 2739.94 1253.47C2739.11 1253.2 2738.1 1252.25 2737.94 1251.45C2737.64 1250.03 2738.76 1248.95 2740.05 1248.59C2746.82 1246.68 2753.07 1243.85 2758.59 1239.35C2761.38 1237.09 2765.03 1238.37 2769.11 1238.17C2771.1 1239.29 2773.16 1238.66 2773.69 1240.85Z" fill="#FEFEFE"/>
<path d="M2132.55 1663.67C2127.99 1660.47 2128.44 1657.35 2132.84 1655.57C2137.08 1653.85 2141.45 1652.69 2143.22 1645.88C2146.7 1657.49 2146.68 1657.44 2138.4 1660.74C2136.58 1661.47 2134.96 1662.66 2132.55 1663.67Z" fill="#FEFEFE"/>
<path d="M2938.71 1188.17C2936.81 1189.23 2935.24 1189.86 2933.63 1190.02C2932.03 1190.17 2930.38 1189.85 2928.6 1189.73C2931.68 1183.37 2931.68 1183.37 2938.71 1188.17Z" fill="#FEFEFE"/>
<path d="M2096.17 1708.89C2098.32 1709.85 2099.44 1710.97 2097.55 1712.47C2096.61 1713.21 2095.39 1714.15 2094.31 1712.75C2093.02 1711.08 2093.94 1709.87 2096.17 1708.89Z" fill="#A6B9A8"/>
<path d="M916.789 1666.06C920.792 1662.9 925.821 1663.14 930.243 1665.36C935.253 1667.87 940.344 1668.36 945.598 1667.94C959.793 1666.82 973.741 1670.01 988.541 1670.29C977.071 1671.32 965.09 1671.53 952.891 1669.14C942.966 1667.2 932.455 1669.11 922.318 1667.17C920.705 1666.86 919.062 1666.71 916.789 1666.06Z" fill="#999898"/>
<path d="M847.225 1660.29C860.607 1659.15 874.424 1661.24 888.96 1662.68C884.101 1663.9 878.525 1663.97 873.073 1662.98C864.707 1661.46 856.293 1660.9 847.225 1660.29Z" fill="#999898"/>
<path d="M1276.89 1675.23C1276.65 1672.74 1278.27 1671.94 1280.41 1672.03C1285.85 1672.28 1291.34 1671.3 1297.32 1673.25C1291.47 1677.63 1284.47 1674.94 1276.89 1675.23Z" fill="#999898"/>
<path d="M1346.67 1673.3C1346.58 1672.67 1347.1 1672.36 1348.18 1672.23C1348.15 1672.62 1347.65 1673.02 1346.67 1673.3Z" fill="#999898"/>
<path d="M1009.23 1672.71C1009.56 1672.36 1010.26 1672.45 1011.37 1672.85C1011.06 1673.16 1010.33 1673.16 1009.23 1672.71Z" fill="#999898"/>
</g>
<defs>
<clipPath id="clip0_0_1">
<rect width="3881" height="3343" fill="white"/>
</clipPath>
</defs>
</svg>
